<?xml version="1.0" encoding="UTF-8"?>
<svg version="1.1" xmlns="http://www.w3.org/2000/svg" width="837" height="704">
<path d="M0 0 C0.99 0.495 0.99 0.495 2 1 C2.5625 3.61328125 2.5625 3.61328125 3 7.3125 C3.08121094 7.99675049 3.16242188 8.68100098 3.24609375 9.38598633 C4.18408196 17.8017248 4.6994676 26.25979315 5.21484375 34.71020508 C5.65340339 41.52086318 6.40298858 48.18164871 7.50488281 54.91674805 C7.96474163 57.78043493 8.35542298 60.64127109 8.7109375 63.51953125 C9.94690682 73.43393493 11.4900166 83.02130179 14.109375 92.66796875 C14.82139121 95.33178379 15.35627492 97.91244433 15.8125 100.625 C17.21137214 107.17827491 20.86403403 113.13680071 24 119 C24.39832031 119.763125 24.79664063 120.52625 25.20703125 121.3125 C27.07098153 124.75820889 29.19257287 127.29283812 32 130 C32 130.66 32 131.32 32 132 C32.54527344 132.268125 33.09054687 132.53625 33.65234375 132.8125 C35.32590672 133.65902769 36.9833667 134.53771017 38.62890625 135.4375 C54.79611048 144.04852755 69.53271899 141.6953444 87.12109375 139.00390625 C89.11213625 138.70779404 91.1031801 138.41169064 93.09429264 138.11604977 C97.22908389 137.50051728 101.3625864 136.87639797 105.49591064 136.25109863 C162.70400483 127.596685 217.63890545 126.64581659 270 155 C270.61456055 155.33 271.22912109 155.66 271.86230469 156 C280.0288823 160.41763099 287.61543392 165.37029891 295 171 C296.04220703 171.76957031 296.04220703 171.76957031 297.10546875 172.5546875 C299.08583874 174.01723619 301.04616779 175.50218556 303 177 C303.89589844 177.68578125 304.79179688 178.3715625 305.71484375 179.078125 C306.63394531 179.79484375 307.55304688 180.5115625 308.5 181.25 C309.3559375 181.91515625 310.211875 182.5803125 311.09375 183.265625 C311.7228125 183.83796875 312.351875 184.4103125 313 185 C313 185.66 313 186.32 313 187 C313.59329102 187.26876953 314.18658203 187.53753906 314.79785156 187.81445312 C317.00540033 189.00290732 318.46542882 190.20742389 320.234375 191.96875 C320.80800781 192.53980469 321.38164063 193.11085938 321.97265625 193.69921875 C322.55917969 194.29347656 323.14570312 194.88773438 323.75 195.5 C324.35199219 196.09425781 324.95398438 196.68851563 325.57421875 197.30078125 C326.14269531 197.87183594 326.71117187 198.44289063 327.296875 199.03125 C327.81604492 199.55267578 328.33521484 200.07410156 328.87011719 200.61132812 C330 202 330 202 330 204 C330.66 204 331.32 204 332 204 C335.25076962 207.44417925 338.08486247 211.26957844 341 215 C341.51626953 215.65871094 342.03253906 216.31742188 342.56445312 216.99609375 C349.42355415 225.77639709 355.94846018 234.64167925 362 244 C363.24834107 245.85528397 364.49839891 247.70941373 365.75 249.5625 C369.75260615 255.55856098 373.58474023 261.65724977 377.41235352 267.76611328 C381.13742986 273.69191384 384.97597131 279.52964775 388.96630859 285.28051758 C390.9052763 288.12263816 392.50038773 290.55352213 393 294 C393.66 294 394.32 294 395 294 C396.375 295.94921875 396.375 295.94921875 398 298.6875 C401.82174313 304.85261648 406.10182241 310.56347056 410.60791016 316.23583984 C412.02039067 318.02584057 413.40692895 319.83400778 414.79296875 321.64453125 C427.73305861 338.30652702 442.8264966 353.69954888 460 366 C461.38034569 367.01283367 462.7605467 368.02586452 464.140625 369.0390625 C481.66042102 381.77373338 500.17196822 391.38437478 520.7824707 398.09814453 C522.53928797 398.68143064 524.27265189 399.3344941 526 400 C526.33 400.66 526.66 401.32 527 402 C523.04914032 402.93384925 519.38050673 403.12435641 515.32522106 403.12304783 C514.66436285 403.12420167 514.00350464 403.12535552 513.32262042 403.12654433 C511.10463724 403.12919457 508.88672642 403.12470194 506.66874695 403.12025452 C505.06400896 403.12069054 503.45927104 403.12156603 501.85453349 403.12284368 C497.44201052 403.12508245 493.02951176 403.12107577 488.61699188 403.11606562 C483.85970744 403.11175248 479.10242439 403.11320816 474.34513855 403.1139679 C466.10186628 403.11449258 457.85860193 403.11135155 449.61533165 403.10573006 C437.69690432 403.09760758 425.77848081 403.09499907 413.86005101 403.09374207 C394.52380463 403.09155273 375.18756246 403.08489583 355.85131836 403.07543945 C337.06648784 403.06626229 318.28165848 403.05918294 299.49682617 403.05493164 C298.33918551 403.05466892 297.18154484 403.05440619 295.98882415 403.05413551 C290.18135768 403.05283048 284.37389121 403.05156677 278.56642473 403.05032361 C230.37761357 403.03995467 182.18880699 403.02233955 134 403 C133.67 402.01 133.34 401.02 133 400 C134.79125849 399.24902565 136.58303436 398.49928538 138.375 397.75 C139.47972656 397.28722656 140.58445312 396.82445312 141.72265625 396.34765625 C144.40515663 395.24460186 147.09836657 394.20816063 149.8125 393.1875 C163.79840796 387.53077927 178.12235215 379.35527728 188.59277344 368.3215332 C190 367 190 367 192 367 C192 366.34 192 365.68 192 365 C193.375 363.375 193.375 363.375 195 362 C195.66 362 196.32 362 197 362 C197.33 361.01 197.66 360.02 198 359 C198.66 359 199.32 359 200 359 C200.26683594 358.42507813 200.53367187 357.85015625 200.80859375 357.2578125 C202.04064495 354.92297449 203.44838275 352.96105816 205.0625 350.875 C207.23226195 348.06372737 207.23226195 348.06372737 209 345 C209.66 345 210.32 345 211 345 C211.309375 343.8553125 211.309375 343.8553125 211.625 342.6875 C212.81349538 339.50017147 214.13984692 336.8786175 215.8125 333.9375 C220.87317302 324.78652572 224.0624265 315.25442987 226.75 305.1875 C226.96084229 304.39923828 227.17168457 303.61097656 227.38891602 302.79882812 C232.21882198 283.99407739 232.74461807 260.36645182 226 242 C225.42185547 240.38351562 225.42185547 240.38351562 224.83203125 238.734375 C219.68406955 225.47295911 211.66338659 214.04457326 201.25 204.375 C200 203 200 203 200 201 C199.46632813 200.76796875 198.93265625 200.5359375 198.3828125 200.296875 C195.2808753 198.60860754 192.62675585 196.44274856 189.875 194.25 C159.3291498 170.46942377 121.42654697 164.84530783 83.796875 169.30859375 C63.5924743 172.02219521 41.19258919 179.22744599 28.125 195.625 C7.75877776 224.75298133 6.4915974 266.70682087 4.40234375 301.00390625 C3.94338791 308.38573795 3.06804374 315.68276417 2 323 C1.34 323 0.68 323 0 323 C-1.48807741 317.11992714 -2.16937878 311.33480267 -2.4453125 305.28515625 C-2.89453671 296.73147349 -3.72505795 288.24447471 -4.67456055 279.73339844 C-4.93809891 277.3696282 -5.19513773 275.00521871 -5.45117188 272.640625 C-7.49962857 252.96333788 -7.49962857 252.96333788 -11.25 233.5625 C-11.46470947 232.67780029 -11.67941895 231.79310059 -11.90063477 230.8815918 C-14.74720645 219.56159926 -18.35681791 208.74459002 -24.80078125 198.91796875 C-26 197 -26 197 -27 194 C-27.66 194 -28.32 194 -29 194 C-30.35386936 192.34997172 -31.68678142 190.6825613 -33 189 C-33.66 188.67 -34.32 188.34 -35 188 C-35 187.34 -35 186.68 -35 186 C-35.51691406 185.74734375 -36.03382813 185.4946875 -36.56640625 185.234375 C-38.44694089 184.28052436 -40.30489001 183.28206795 -42.15234375 182.265625 C-61.7107396 171.71783668 -83.20238055 168.23732261 -104.95629883 165.06054688 C-110.68250348 164.22029164 -116.34184919 163.22593268 -122 162 C-120 159 -120 159 -116.61791992 158.18798828 C-115.1573305 157.96906211 -113.69459556 157.76417535 -112.23046875 157.5703125 C-111.44622528 157.45505219 -110.66198181 157.33979187 -109.85397339 157.22103882 C-108.17244807 156.97417311 -106.49013544 156.73262334 -104.80715942 156.49584961 C-100.44174552 155.87786392 -96.08416615 155.20961674 -91.7265625 154.5390625 C-90.4460778 154.34253082 -90.4460778 154.34253082 -89.13972473 154.14202881 C-66.59826851 150.6353581 -42.45041624 145.23069494 -27.08984375 126.92578125 C-4.61983535 95.46776949 -4.06770105 48.13377341 -1.59521484 10.77978516 C-1.49587646 9.29744385 -1.49587646 9.29744385 -1.39453125 7.78515625 C-1.34143799 6.92801025 -1.28834473 6.07086426 -1.23364258 5.18774414 C-1 3 -1 3 0 0 Z " fill="#0B0B0B" transform="translate(286,279)"/>
<path d="M0 0 C3.83943258 1.46769982 5.04112807 3.28864153 6.91796875 6.8828125 C7.44575928 7.87772705 7.9735498 8.8726416 8.51733398 9.89770508 C9.34406616 11.49521606 9.34406616 11.49521606 10.1875 13.125 C11.34792487 15.31955719 12.50938597 17.51356677 13.671875 19.70703125 C14.23841797 20.78291504 14.80496094 21.85879883 15.38867188 22.96728516 C17.506588 26.95346002 19.70506756 30.88960725 21.9375 34.8125 C24.26850028 38.91376291 26.56633348 43.02772622 28.8203125 47.171875 C32.14741736 53.28594653 35.53616006 59.3644805 38.9375 65.4375 C39.51951172 66.47970703 40.10152344 67.52191406 40.70117188 68.59570312 C43.66170686 73.88401202 46.66089611 79.14361163 49.734375 84.3671875 C52.10507884 88.41428692 54.30084807 92.45272868 56.3125 96.6875 C60.07842619 104.34600909 64.40653 111.62257887 68.77880859 118.94677734 C72.99314939 126.03246428 77.14527998 133.14348321 80.75 140.5625 C84.45352861 148.12051626 88.72815809 155.35042378 92.92578125 162.640625 C95.64171577 167.36091751 98.30399881 172.10833044 100.9375 176.875 C108.32417764 190.2300409 115.84441127 203.51129704 123.4375 216.75 C127.45976651 223.78058666 131.35827079 230.8683015 135.125 238.0390625 C139.00347936 245.41926886 142.91279988 252.74333003 147.19921875 259.8984375 C148.78036366 262.62171094 150.29797177 265.36590695 151.80078125 268.1328125 C154.96627742 273.96086177 158.2238269 279.73362407 161.5 285.5 C164.72402588 291.17459186 167.93295509 296.85391447 171.046875 302.58984375 C173.87267143 307.79179381 176.79680555 312.93207549 179.75 318.0625 C184.01019171 325.48570186 188.20658633 332.93943427 192.32861328 340.44018555 C194.43560555 344.25424361 196.59575604 348.02486319 198.84375 351.7578125 C199.30894043 352.5322168 199.77413086 353.30662109 200.25341797 354.10449219 C201.14554876 355.58131959 202.0452362 357.05361736 202.95361328 358.52050781 C205.08061747 362.04006052 206 363.7900185 206 368 C203.68850604 367.60146656 202.33001928 367.34069638 200.671875 365.62890625 C198.6443131 363.65345458 196.57071707 362.56119718 194.0625 361.25 C190.1407654 359.17948732 186.37860121 356.98379101 182.625 354.625 C158.28742607 340.45928389 128.81057256 335.73258424 101.55224609 330.28344727 C92.98160351 328.55793756 84.48729918 326.71077558 76.05859375 324.37890625 C75.33071655 324.17780243 74.60283936 323.97669861 73.85290527 323.76950073 C67.92348095 322.07825888 62.45452738 319.85470592 57 317 C55.63488281 316.2884375 55.63488281 316.2884375 54.2421875 315.5625 C51.47123084 314.08053989 48.7341297 312.54867492 46 311 C45.18917969 310.56171875 44.37835938 310.1234375 43.54296875 309.671875 C35.90577079 305.37826451 29.48586041 299.83250383 23 294 C22.15566406 293.25234375 21.31132812 292.5046875 20.44140625 291.734375 C5.8906296 278.06763569 -4.01040375 260.6050026 -13 243 C-13.35747314 242.31655518 -13.71494629 241.63311035 -14.08325195 240.92895508 C-16.739881 235.77613856 -18.88792441 230.48243289 -20.9375 225.0625 C-21.28449951 224.14662109 -21.63149902 223.23074219 -21.98901367 222.28710938 C-46.51606221 156.5470918 -41.00577619 83.69862153 -12.09375 20.3671875 C-4.76723058 4.76723058 -4.76723058 4.76723058 0 0 Z " fill="#0B0B0B" transform="translate(366,22)"/>
<path d="M0 0 C0.66 0 1.32 0 2 0 C5.19988878 6.05921291 7.57463588 12.15693781 9.8125 18.625 C12.96011816 27.49335348 16.58852844 35.6818019 21 44 C22.12682641 46.33245186 23.2517961 48.66580154 24.375 51 C40.53710409 83.14462925 67.63568592 106.88475379 100 122 C101.12019531 122.52464844 102.24039063 123.04929687 103.39453125 123.58984375 C111.387153 127.1642428 119.56397811 129.96040931 127.89331055 132.64086914 C129.18748901 133.05840454 129.18748901 133.05840454 130.5078125 133.484375 C131.27754395 133.72897461 132.04727539 133.97357422 132.84033203 134.22558594 C134.99609276 134.99859894 136.97529466 135.93388137 139 137 C139 137.66 139 138.32 139 139 C136.14941889 139.9501937 134.39590168 140.12607681 131.44095707 140.12863445 C130.03014743 140.13347112 130.03014743 140.13347112 128.59083658 140.1384055 C127.5556385 140.1368569 126.52044041 140.1353083 125.45387268 140.13371277 C124.35565608 140.13597833 123.25743949 140.13824388 122.1259436 140.14057809 C118.4271322 140.14693416 114.72835729 140.1460877 111.02954102 140.14526367 C108.38537457 140.14825414 105.74121103 140.15162785 103.0970459 140.15544128 C96.64910929 140.16375419 90.20118182 140.16649641 83.75324029 140.16705366 C78.51354638 140.16752848 73.27385548 140.16958154 68.03416252 140.17275429 C53.18635295 140.18156232 38.33855061 140.18617339 23.4907384 140.18542381 C22.68998369 140.18538386 21.88922899 140.1853439 21.06420898 140.18530273 C20.26247936 140.18526185 19.46074973 140.18522097 18.63472527 140.18517885 C5.63665437 140.18477226 -7.36138758 140.19434482 -20.35945009 140.2084411 C-33.69823283 140.22279304 -47.03700143 140.22971195 -60.37579209 140.22884732 C-67.86756459 140.22851496 -75.35930675 140.23127919 -82.85107231 140.24202538 C-89.22879767 140.2511148 -95.6064789 140.25331847 -101.98420792 140.24651595 C-105.23936337 140.24324293 -108.49441618 140.2443015 -111.74956703 140.2518692 C-115.27541772 140.25953739 -118.80104351 140.25497869 -122.32688904 140.24723816 C-123.3598564 140.25238172 -124.39282377 140.25752529 -125.45709318 140.26282471 C-126.40024069 140.25822592 -127.34338819 140.25362712 -128.31511593 140.24888897 C-129.12912898 140.24910634 -129.94314203 140.24932371 -130.78182214 140.24954766 C-133.23752999 139.97327759 -134.87225372 139.22695317 -137 138 C-132.04029992 135.26710404 -127.07427818 133.28773039 -121.6875 131.5625 C-115.21298895 129.47009842 -109.10599299 127.00028872 -103 124 C-102.08516846 123.55285645 -102.08516846 123.55285645 -101.15185547 123.09667969 C-97.03104673 121.07803687 -92.93067012 119.02239989 -88.84375 116.93603516 C-87.26704393 116.13557289 -85.68125879 115.3530369 -84.09375 114.57421875 C-77.34447048 111.12842695 -71.45459366 106.76399936 -65.48046875 102.13769531 C-64.50207031 101.38117676 -64.50207031 101.38117676 -63.50390625 100.609375 C-62.92455322 100.15530273 -62.3452002 99.70123047 -61.74829102 99.23339844 C-59.90807897 97.93515081 -58.03572282 96.95660834 -56 96 C-56 95.34 -56 94.68 -56 94 C-54.35546875 92.4140625 -54.35546875 92.4140625 -52.1875 90.625 C-49.93749143 88.76433718 -48.09649715 87.13127297 -46.36328125 84.7734375 C-45.91339844 84.18820312 -45.46351562 83.60296875 -45 83 C-44.34 83 -43.68 83 -43 83 C-42.76539062 82.46246094 -42.53078125 81.92492187 -42.2890625 81.37109375 C-40.63894405 78.33587588 -38.52433245 75.75017444 -36.375 73.0625 C-27.8457485 62.13198831 -21.59768862 50.56748168 -15.90966797 37.98681641 C-15.1020076 36.22279599 -14.25857531 34.47525194 -13.41015625 32.73046875 C-9.78806407 25.2460926 -6.99509152 17.5882756 -4.35913086 9.71362305 C-3.94159546 8.4747937 -3.94159546 8.4747937 -3.515625 7.2109375 C-3.14872559 6.10177979 -3.14872559 6.10177979 -2.77441406 4.97021484 C-2 3 -2 3 0 0 Z " fill="#0D0D0D" transform="translate(155,542)"/>
<path d="M0 0 C0.66 0.33 1.32 0.66 2 1 C-9.21359223 10 -9.21359223 10 -16 10 C-16 10.66 -16 11.32 -16 12 C-17.98 12.66 -19.96 13.32 -22 14 C102.08 14.33 226.16 14.66 354 15 C354 14.34 354 13.68 354 13 C351.69 13 349.38 13 347 13 C346.67 12.01 346.34 11.02 346 10 C343.98491642 9.26676204 343.98491642 9.26676204 342 9 C344 8 344 8 345.77172852 8.40551758 C346.46709717 8.64939209 347.16246582 8.8932666 347.87890625 9.14453125 C349.01295898 9.54188477 349.01295898 9.54188477 350.16992188 9.94726562 C350.95947266 10.23279297 351.74902344 10.51832031 352.5625 10.8125 C353.35591797 11.08642578 354.14933594 11.36035156 354.96679688 11.64257812 C360.87288555 13.7457711 360.87288555 13.7457711 362 16 C358.04914032 16.93384925 354.38050673 17.12435641 350.32522106 17.12304783 C349.66436285 17.12420167 349.00350464 17.12535552 348.32262042 17.12654433 C346.10463724 17.12919457 343.88672642 17.12470194 341.66874695 17.12025452 C340.06400896 17.12069054 338.45927104 17.12156603 336.85453349 17.12284368 C332.44201052 17.12508245 328.02951176 17.12107577 323.61699188 17.11606562 C318.85970744 17.11175248 314.10242439 17.11320816 309.34513855 17.1139679 C301.10186628 17.11449258 292.85860193 17.11135155 284.61533165 17.10573006 C272.69690432 17.09760758 260.77848081 17.09499907 248.86005101 17.09374207 C229.52380463 17.09155273 210.18756246 17.08489583 190.85131836 17.07543945 C172.06648784 17.06626229 153.28165848 17.05918294 134.49682617 17.05493164 C133.33918551 17.05466892 132.18154484 17.05440619 130.98882415 17.05413551 C125.18135768 17.05283048 119.37389121 17.05156677 113.56642473 17.05032361 C65.37761357 17.03995467 17.18880699 17.02233955 -31 17 C-31.33 16.01 -31.66 15.02 -32 14 C-26.3109591 11.61490382 -20.62526348 9.23417881 -14.875 7 C-10.42504984 5.25026232 -6.23730522 3.12487513 -2.03125 0.85546875 C-1.3609375 0.57316406 -0.690625 0.29085937 0 0 Z " fill="#555555" transform="translate(451,665)"/>
<path d="M0 0 C0 0.66 0 1.32 0 2 C-0.598125 2.268125 -1.19625 2.53625 -1.8125 2.8125 C-4.04254963 3.87102051 -4.04254963 3.87102051 -5.5 5.625 C-7 7 -7 7 -11 7 C-11 7.66 -11 8.32 -11 9 C-16.15711405 12.08229834 -21.13456691 14.9826516 -27 16.4375 C-35.52425602 18.65735834 -43.73454929 21.95483395 -52 25 C32.81 25 117.62 25 205 25 C201.59727152 22.44795364 199.97909192 21.60681943 196.078125 20.59765625 C193.53387248 19.86594453 191.09366896 18.95572756 188.625 18 C187.77164063 17.67 186.91828125 17.34 186.0390625 17 C184 16 184 16 183 14 C187.84615812 14.62361415 192.16213625 16.04137377 196.6875 17.8125 C198.09748187 18.35331943 199.50763919 18.89368167 200.91796875 19.43359375 C201.60681152 19.69897949 202.2956543 19.96436523 203.00537109 20.23779297 C207.31489597 21.8845906 211.65964026 23.43673484 216 25 C216 25.66 216 26.32 216 27 C213.14941889 27.9501937 211.39590168 28.12607681 208.44095707 28.12863445 C207.03014743 28.13347112 207.03014743 28.13347112 205.59083658 28.1384055 C204.5556385 28.1368569 203.52044041 28.1353083 202.45387268 28.13371277 C201.35565608 28.13597833 200.25743949 28.13824388 199.1259436 28.14057809 C195.4271322 28.14693416 191.72835729 28.1460877 188.02954102 28.14526367 C185.38537457 28.14825414 182.74121103 28.15162785 180.0970459 28.15544128 C173.64910929 28.16375419 167.20118182 28.16649641 160.75324029 28.16705366 C155.51354638 28.16752848 150.27385548 28.16958154 145.03416252 28.17275429 C130.18635295 28.18156232 115.33855061 28.18617339 100.4907384 28.18542381 C99.68998369 28.18538386 98.88922899 28.1853439 98.06420898 28.18530273 C97.26247936 28.18526185 96.46074973 28.18522097 95.63472527 28.18517885 C82.63665437 28.18477226 69.63861242 28.19434482 56.64054991 28.2084411 C43.30176717 28.22279304 29.96299857 28.22971195 16.62420791 28.22884732 C9.13243541 28.22851496 1.64069325 28.23127919 -5.85107231 28.24202538 C-12.22879767 28.2511148 -18.6064789 28.25331847 -24.98420792 28.24651595 C-28.23936337 28.24324293 -31.49441618 28.2443015 -34.74956703 28.2518692 C-38.27541772 28.25953739 -41.80104351 28.25497869 -45.32688904 28.24723816 C-46.3598564 28.25238172 -47.39282377 28.25752529 -48.45709318 28.26282471 C-49.87181444 28.25592652 -49.87181444 28.25592652 -51.31511593 28.24888897 C-52.12912898 28.24910634 -52.94314203 28.24932371 -53.78182214 28.24954766 C-56.23752999 27.97327759 -57.87225372 27.22695317 -60 26 C-55.04029992 23.26710404 -50.07427818 21.28773039 -44.6875 19.5625 C-33.90630046 16.07828339 -23.98515258 11.05401563 -13.89453125 5.96484375 C-13.26111816 5.64628418 -12.62770508 5.32772461 -11.97509766 4.99951172 C-10.58090384 4.29397037 -9.19027011 3.58137271 -7.80224609 2.86376953 C-7.08762207 2.49751465 -6.37299805 2.13125977 -5.63671875 1.75390625 C-4.98791748 1.41818604 -4.33911621 1.08246582 -3.6706543 0.73657227 C-2 0 -2 0 0 0 Z " fill="#595959" transform="translate(78,654)"/>
<path d="M0 0 C0.53625 0.226875 1.0725 0.45375 1.625 0.6875 C-1.02238916 2.1481285 -2.26948334 2.6875 -5.375 2.6875 C-5.375 3.3475 -5.375 4.0075 -5.375 4.6875 C122.005 4.6875 249.385 4.6875 380.625 4.6875 C380.625 5.0175 380.625 5.3475 380.625 5.6875 C252.585 5.6875 124.545 5.6875 -7.375 5.6875 C-7.705 4.6975 -8.035 3.7075 -8.375 2.6875 C-2.95961538 -0.38942308 -2.95961538 -0.38942308 0 0 Z " fill="#D5D5D5" transform="translate(427.375,676.3125)"/>
<path d="M0 0 C-3.12749049 1.56374525 -5.30979697 0.16043785 -8.5625 -0.875 C-9.73941406 -1.24367188 -10.91632813 -1.61234375 -12.12890625 -1.9921875 C-15 -3 -15 -3 -16 -4 C-17.34747084 -4.23075082 -18.70377565 -4.41153063 -20.0625 -4.5625 C-21.361875 -4.706875 -22.66125 -4.85125 -24 -5 C-24 -5.66 -24 -6.32 -24 -7 C-29.7748881 -8.60245586 -35.37562995 -10.07986244 -41.375 -10.4375 C-45.69931992 -10.72701999 -49.37858945 -11.66603997 -53.5 -13 C-67.84911498 -17.24020957 -83.34986077 -16.08319848 -98.1875 -16.125 C-99.32798798 -16.12929016 -99.32798798 -16.12929016 -100.49151611 -16.13366699 C-119.80258179 -16.40550365 -119.80258179 -16.40550365 -138.76171875 -13.41015625 C-143.44656642 -12.55167631 -148.25665985 -12.85553279 -153 -13 C-153 -13.33 -153 -13.66 -153 -14 C-101.38389557 -21.68536275 -47.95211765 -24.98150645 0 0 Z " fill="#909090" transform="translate(546,429)"/>
<path d="M0 0 C4.84615812 0.62361415 9.16213625 2.04137377 13.6875 3.8125 C15.09748187 4.35331943 16.50763919 4.89368167 17.91796875 5.43359375 C18.60681152 5.69897949 19.2956543 5.96436523 20.00537109 6.23779297 C24.31489597 7.8845906 28.65964026 9.43673484 33 11 C33 11.66 33 12.32 33 13 C30.14385531 13.95204823 28.39076231 14.12442567 25.42978382 14.12304783 C24.48677727 14.12503888 23.54377071 14.12702993 22.5721882 14.12908131 C21.01529835 14.12471205 21.01529835 14.12471205 19.42695618 14.12025452 C17.77539789 14.12153615 17.77539789 14.12153615 16.09047478 14.12284368 C12.38232172 14.12449747 8.67421339 14.11897873 4.96606445 14.11352539 C2.3154083 14.11324347 -0.33524507 14.11335726 -2.98590088 14.1139679 C-8.70223648 14.11449272 -14.41856068 14.11135023 -20.13489342 14.10573006 C-28.39979125 14.09760947 -36.66468357 14.09499926 -44.92958496 14.09374207 C-58.33823229 14.09155243 -71.74687355 14.08489473 -85.15551758 14.07543945 C-98.18220998 14.06626306 -111.20890073 14.05918334 -124.2355957 14.05493164 C-125.03830934 14.05466892 -125.84102298 14.05440619 -126.66806128 14.05413551 C-130.69496453 14.05283049 -134.7218678 14.05156678 -138.74877107 14.05032361 C-172.16585179 14.03995374 -205.58292515 14.02233781 -239 14 C-239 13.67 -239 13.34 -239 13 C-151.55 12.67 -64.1 12.34 26 12 C23.48166894 9.48166894 21.7064959 9.32344499 18.25 8.5625 C13.78170082 7.50548299 10.02535693 6.25812706 6 4 C4.6078125 3.4740625 4.6078125 3.4740625 3.1875 2.9375 C1 2 1 2 0 0 Z " fill="#CFCFCF" transform="translate(261,668)"/>
<path d="M0 0 C0.66 0.33 1.32 0.66 2 1 C2.5625 3.61328125 2.5625 3.61328125 3 7.3125 C3.08121094 7.99675049 3.16242188 8.68100098 3.24609375 9.38598633 C4.18408196 17.8017248 4.6994676 26.25979315 5.21484375 34.71020508 C5.65268654 41.5097308 6.39684054 48.16171193 7.49609375 54.88598633 C7.9743477 57.84147524 8.39192177 60.79725337 8.78125 63.765625 C8.90113281 64.67570312 9.02101563 65.58578125 9.14453125 66.5234375 C9.38351358 68.35651079 9.62045972 70.18985058 9.85546875 72.0234375 C10.53064993 77.11996644 11.39290693 82.04661612 12.71289062 87.01855469 C13.04074908 89.28122412 12.68521942 90.83659523 12 93 C11.72285156 91.86820312 11.44570313 90.73640625 11.16015625 89.5703125 C10.79439512 88.08851098 10.42850289 86.60674182 10.0625 85.125 C9.88009766 84.37863281 9.69769531 83.63226563 9.50976562 82.86328125 C8.54790308 78.82960875 8.54790308 78.82960875 7 75 C6.67077125 72.73430763 6.38769286 70.46186715 6.125 68.1875 C5.5773019 63.49271543 4.98879977 58.81563713 4.23828125 54.1484375 C2.06085567 40.44276056 1.31239104 26.86774608 1 13 C0.67 13 0.34 13 0 13 C-0.02505615 13.65073486 -0.0501123 14.30146973 -0.07592773 14.97192383 C-0.19193702 17.91898046 -0.31464115 20.8657213 -0.4375 23.8125 C-0.47681641 24.83666016 -0.51613281 25.86082031 -0.55664062 26.91601562 C-0.59853516 27.89892578 -0.64042969 28.88183594 -0.68359375 29.89453125 C-0.73858032 31.25348511 -0.73858032 31.25348511 -0.79467773 32.63989258 C-1 35 -1 35 -2 38 C-2.2063576 40.12412189 -2.36641302 42.25287546 -2.5 44.3828125 C-2.5825 45.63191406 -2.665 46.88101563 -2.75 48.16796875 C-2.91715829 50.81377107 -3.08382208 53.45960467 -3.25 56.10546875 C-3.3325 57.35199219 -3.415 58.59851563 -3.5 59.8828125 C-3.5721875 61.03152832 -3.644375 62.18024414 -3.71875 63.36376953 C-4 66 -4 66 -5 67 C-5.33229637 68.70437691 -5.61144899 70.41918583 -5.8671875 72.13671875 C-6.03089844 73.18923828 -6.19460938 74.24175781 -6.36328125 75.32617188 C-6.70134486 77.54681107 -7.03476677 79.76816244 -7.36328125 81.99023438 C-8.23258091 87.52612327 -9.05434454 92.19437353 -12 97 C-13.42053895 94.15892209 -12.53172164 92.69320256 -11.6875 89.66015625 C-10.01920109 83.29123558 -8.92574576 76.9511635 -8 70.4375 C-7.74790771 68.69255249 -7.74790771 68.69255249 -7.49072266 66.91235352 C-4.8666435 48.38057321 -2.91661189 29.80769706 -1.64599609 11.13452148 C-1.57461426 10.11044189 -1.50323242 9.0863623 -1.4296875 8.03125 C-1.34050049 6.67870117 -1.34050049 6.67870117 -1.24951172 5.29882812 C-1 3 -1 3 0 0 Z " fill="#A2A2A2" transform="translate(286,279)"/>
<path d="M0 0 C1.71631433 3.04317941 2.38995032 5.61975994 2.81640625 9.078125 C2.94031738 10.06699707 3.06422852 11.05586914 3.19189453 12.07470703 C3.31419434 13.12255371 3.43649414 14.17040039 3.5625 15.25 C3.69253418 16.32233887 3.82256836 17.39467773 3.95654297 18.49951172 C4.82873089 25.91366454 5.45231899 33.30134912 5.7890625 40.7578125 C5.99333072 43.89749077 6.42678834 46.90841581 7 50 C7.99 50 8.98 50 10 50 C9.94779297 48.67548828 9.94779297 48.67548828 9.89453125 47.32421875 C9.73630656 40.30959072 10.15444119 34.43600217 12.265625 27.75390625 C13.55400602 22.92247743 13.7480807 17.97757789 14 13 C14.66 13 15.32 13 16 13 C15.50884608 22.37069986 14.76339621 31.66699561 13.73095703 40.99267578 C13.19738177 45.88825366 12.78987815 50.76992424 12.5 55.6875 C12.03030672 63.51002809 11.05051107 71.23845706 10 79 C9.34 79 8.68 79 8 79 C6.5117425 73.1192155 5.83239212 67.33555128 5.55859375 61.28515625 C5.07025874 51.93686461 4.0663927 42.67225045 3 33.375 C1.73043258 22.25597268 0.62951503 11.17596258 0 0 Z " fill="#696969" transform="translate(278,523)"/>
<path d="M0 0 C3.21163783 3.75284509 5.57287202 7.68673263 7.8125 12.0625 C10.84577812 17.87332318 14.03585091 23.5562854 17.3671875 29.203125 C19.39453346 32.67580372 21.31605896 36.19852578 23.23046875 39.734375 C33.05972284 57.8740139 43.17489431 75.85240008 53.4375 93.75 C56.17511796 98.53224057 58.86320253 103.33617983 61.4765625 108.1875 C62.62196827 110.30209527 63.78377481 112.40321457 64.9609375 114.5 C65.61985153 115.68746679 66.27870661 116.87496628 66.9375 118.0625 C67.54464844 119.14660156 68.15179688 120.23070312 68.77734375 121.34765625 C69.18082031 122.22292969 69.58429688 123.09820312 70 124 C69.67 124.66 69.34 125.32 69 126 C64.74419099 120.85804993 61.35857089 116.25021285 59 110 C57.48901236 106.78093937 55.92595582 103.89005561 53.9375 100.9375 C52 98 52 98 51.13671875 95.7265625 C49.4861742 91.76752437 47.101952 88.29491003 44.74609375 84.72851562 C42.63390263 81.42096359 42 80.05448863 42 76 C41.34 76 40.68 76 40 76 C39.66790527 75.38592285 39.33581055 74.7718457 38.99365234 74.13916016 C37.45642227 71.29984342 35.91572955 68.46241919 34.375 65.625 C33.85292969 64.65949219 33.33085937 63.69398438 32.79296875 62.69921875 C29.70722783 57.02297929 26.50967825 51.45548645 23.08837891 45.97412109 C22 44 22 44 22 42 C21.34 42 20.68 42 20 42 C20 40.68 20 39.36 20 38 C19.34 38 18.68 38 18 38 C17.63648438 37.154375 17.27296875 36.30875 16.8984375 35.4375 C14.19870763 29.34580183 11.50639963 24.02482447 7.32421875 18.84375 C4.57710992 15.01886691 3 10.72657594 3 6 C2.34 6 1.68 6 1 6 C0.67 4.02 0.34 2.04 0 0 Z " fill="#969696" transform="translate(436,145)"/>
<path d="M0 0 C1.18827393 0.00338379 2.37654785 0.00676758 3.60083008 0.01025391 C25.73985513 0.14070654 25.73985513 0.14070654 35.6875 3.125 C35.6875 3.785 35.6875 4.445 35.6875 5.125 C37.358125 5.3415625 37.358125 5.3415625 39.0625 5.5625 C42.6875 6.125 42.6875 6.125 44.6875 7.125 C44.6875 7.785 44.6875 8.445 44.6875 9.125 C44.04425781 9.00382812 43.40101563 8.88265625 42.73828125 8.7578125 C14.95979571 3.60631019 -12.37415801 1.60030206 -39.9296875 9.22265625 C-43.0521265 10.05554702 -46.11823302 10.65123257 -49.3125 11.125 C-47.61348752 7.72697504 -43.73505048 7.27198376 -40.3125 6.125 C-39.1575 5.733125 -38.0025 5.34125 -36.8125 4.9375 C-32.79287581 4.00437295 -29.42516259 3.98069605 -25.3125 4.125 C-24.9825 3.135 -24.6525 2.145 -24.3125 1.125 C-16.1909496 0.22681115 -8.16754027 -0.03348062 0 0 Z " fill="#414141" transform="translate(392.3125,442.875)"/>
<path d="M0 0 C-0.99 0.66 -1.98 1.32 -3 2 C113.325 2.495 113.325 2.495 232 3 C232 3.33 232 3.66 232 4 C151.15 4 70.3 4 -13 4 C-11.72807637 1.45615274 -10.80051531 1.30631844 -8.1875 0.3125 C-7.50042969 0.04050781 -6.81335938 -0.23148438 -6.10546875 -0.51171875 C-3.70623504 -1.06812731 -2.3105636 -0.77364938 0 0 Z " fill="#2C2C2C" transform="translate(38,676)"/>
<path d="M0 0 C3.83943258 1.46769982 5.04112807 3.28864153 6.91796875 6.8828125 C7.71013794 8.37578857 7.71013794 8.37578857 8.51831055 9.89892578 C9.06914307 10.96353027 9.61997559 12.02813477 10.1875 13.125 C11.3425411 15.31313856 12.49879539 17.50063715 13.65625 19.6875 C14.22214844 20.76257813 14.78804688 21.83765625 15.37109375 22.9453125 C17.90192941 27.691388 20.56949056 32.35734279 23.28393555 37.00048828 C25.33535148 40.57321799 26.82945388 44.05015719 28 48 C25.625 47 25.625 47 23 45 C21.95231959 42.33078407 21.51315454 39.84567517 21 37 C20.34 37 19.68 37 19 37 C19 35.68 19 34.36 19 33 C18.34 33 17.68 33 17 33 C16.49210937 31.97261719 15.98421875 30.94523437 15.4609375 29.88671875 C11.46520435 21.83294081 7.38993971 13.84868009 3 6 C1.68 6 0.36 6 -1 6 C-2.59618965 8.03951898 -2.59618965 8.03951898 -4 11 C-4.3815625 11.64324219 -4.763125 12.28648438 -5.15625 12.94921875 C-8.55536234 18.72149185 -10.87785212 24.65726751 -13 31 C-13.66 31 -14.32 31 -15 31 C-15.103125 32.0725 -15.20625 33.145 -15.3125 34.25 C-16 38 -16 38 -17.38671875 39.703125 C-19.72158819 43.02734589 -20.47447909 46.60302054 -21.5 50.5 C-23.89690722 59.60824742 -23.89690722 59.60824742 -27 63 C-26.33245725 58.31268892 -25.17598406 53.87945441 -23.75 49.375 C-23.52675049 48.66915771 -23.30350098 47.96331543 -23.07348633 47.23608398 C-21.06112504 40.99528833 -18.70042394 34.97742489 -16 29 C-15.55285645 28.00734131 -15.55285645 28.00734131 -15.09667969 26.99462891 C-5.24637588 5.24637588 -5.24637588 5.24637588 0 0 Z " fill="#A0A0A0" transform="translate(366,22)"/>
<path d="M0 0 C0.93664176 3.04397796 1.00386206 5.2773618 0.51171875 8.4140625 C0.38321533 9.25356445 0.25471191 10.09306641 0.12231445 10.95800781 C-0.02117432 11.83811523 -0.16466309 12.71822266 -0.3125 13.625 C-0.45276611 14.52057617 -0.59303223 15.41615234 -0.73754883 16.33886719 C-1.67810155 22.25891168 -2.73050468 28.14079085 -4 34 C-4.66 34 -5.32 34 -6 34 C-6.02558241 41.8430104 -6.04296338 49.68600985 -6.05493164 57.52905273 C-6.05935646 60.19118235 -6.06672519 62.85325647 -6.07543945 65.51538086 C-6.28570951 90.9591272 -6.28570951 90.9591272 -3.375 116.1875 C-3.0836022 117.78379759 -2.7994525 119.38143954 -2.5234375 120.98046875 C-2.39888184 121.66004639 -2.27432617 122.33962402 -2.14599609 123.03979492 C-1.98241076 125.23616057 -2.36151229 126.90399292 -3 129 C-13.23894609 86.40399614 -10.8065082 42.17540006 0 0 Z " fill="#969696" transform="translate(338,85)"/>
<path d="M0 0 C3.17945408 0.36970396 5.55558686 0.72974876 8.3125 2.40625 C11.24863671 4.14744735 14.06421353 5.15233178 17.3125 6.1875 C18.38113281 6.53167969 19.44976562 6.87585938 20.55078125 7.23046875 C21.35902344 7.48441406 22.16726563 7.73835938 23 8 C23 8.66 23 9.32 23 10 C23.7425 9.95875 24.485 9.9175 25.25 9.875 C28.08758952 10.00398134 29.58773938 10.57051222 32 12 C32 12.66 32 13.32 32 14 C33.299375 14.12375 34.59875 14.2475 35.9375 14.375 C41.7016205 15.01847886 47.31906591 16.0336605 52.78515625 18.00390625 C56.41971767 19.13004618 59.98445832 19.60312929 63.75 20 C72.60761509 21.03127585 80.88287462 22.11789656 89 26 C85.99919744 26.92908383 83.94934894 27.00980964 80.88427734 26.36669922 C80.08178558 26.20257538 79.27929382 26.03845154 78.45248413 25.86935425 C77.58902374 25.68301422 76.72556335 25.49667419 75.8359375 25.3046875 C74.92985748 25.11536652 74.02377747 24.92604553 73.09024048 24.73098755 C71.1644122 24.32650686 69.23949117 23.91768613 67.31542969 23.50488281 C64.4364256 22.88815826 61.55457941 22.28665811 58.671875 21.6875 C49.70825105 19.80344464 40.80323218 17.78621047 31.97265625 15.34765625 C31.25020721 15.14852631 30.52775818 14.94939636 29.78341675 14.74423218 C23.87670426 13.06423996 18.43275105 10.84174671 13 8 C11.49566406 7.21882813 11.49566406 7.21882813 9.9609375 6.421875 C2.39399171 2.39399171 2.39399171 2.39399171 0 0 Z " fill="#9F9F9F" transform="translate(410,331)"/>
<path d="M0 0 C-7.57602894 2.15228095 -15.0044297 3.52501728 -22.83007812 4.26513672 C-24.56135836 4.44530178 -26.2828828 4.71486984 -28 5 C-28.33 5.66 -28.66 6.32 -29 7 C-27.86316772 7.0626001 -27.86316772 7.0626001 -26.70336914 7.12646484 C-17.82893745 7.7018644 -9.1663341 8.98133045 -0.4375 10.625 C0.255784 10.75394653 0.94906799 10.88289307 1.6633606 11.01574707 C13.45506264 13.23452365 25.0275622 16.03231521 36 21 C36.495 21.99 36.495 21.99 37 23 C36.23042969 22.76216797 36.23042969 22.76216797 35.4453125 22.51953125 C32.63491009 21.66316284 29.81855753 20.8291803 27 20 C26.34580078 19.80712402 25.69160156 19.61424805 25.01757812 19.41552734 C10.17669675 15.07160545 -4.66431366 12.29299565 -19.95556641 10.06079102 C-25.68197388 9.22019168 -31.34159707 8.2259873 -37 7 C-35 4 -35 4 -31.99072266 3.18457031 C-30.7279248 2.98444336 -29.46512695 2.78431641 -28.1640625 2.578125 C-27.4883017 2.46901794 -26.81254089 2.35991089 -26.11630249 2.24749756 C-24.68658845 2.01959932 -23.25584217 1.79809837 -21.82421875 1.58251953 C-19.63779037 1.25193389 -17.45582652 0.89914646 -15.2734375 0.54296875 C-3.61623489 -1.29126932 -3.61623489 -1.29126932 0 0 Z " fill="#9E9E9E" transform="translate(201,434)"/>
<path d="M0 0 C6.39719508 2.77936388 10.22290334 5.33346149 13.359375 11.8046875 C15.00158446 15.00308593 16.86940354 17.81258852 18.9375 20.75 C22.48780601 26.00730872 24.87913804 31.05588015 27 37 C28.04766801 39.49712985 29.10328418 41.99054905 30.16796875 44.48046875 C32.16442769 50.52608384 32.1487153 56.74416547 32.1328125 63.0390625 C32.13376923 63.88294525 32.13472595 64.726828 32.13571167 65.59628296 C32.1363886 67.36952795 32.13456849 69.14277548 32.13037109 70.91601562 C32.12500247 73.62375453 32.13033953 76.3313286 32.13671875 79.0390625 C32.13605814 80.76822953 32.13477734 82.49739646 32.1328125 84.2265625 C32.13483673 85.03187408 32.13686096 85.83718567 32.13894653 86.66690063 C32.12267546 90.57876875 31.96248173 94.17970259 31 98 C30.34 98 29.68 98 29 98 C29.06856201 97.37633545 29.13712402 96.7526709 29.20776367 96.11010742 C31.03845376 78.03757424 32.35066653 58.29367171 26 41 C25.61457031 39.92234375 25.22914063 38.8446875 24.83203125 37.734375 C19.68406955 24.47295911 11.66338659 13.04457326 1.25 3.375 C0 2 0 2 0 0 Z " fill="#A6A6A6" transform="translate(486,480)"/>
<path d="M0 0 C7.04998001 1.49134192 13.40721817 4.12115193 20 7 C20 7.33 20 7.66 20 8 C-19.93 8 -59.86 8 -101 8 C-101 7.67 -101 7.34 -101 7 C-63.71 7 -26.42 7 12 7 C12 6.34 12 5.68 12 5 C9.69 5 7.38 5 5 5 C4.505 3.515 4.505 3.515 4 2 C1.98491642 1.26676204 1.98491642 1.26676204 0 1 C0 0.67 0 0.34 0 0 Z " fill="#616161" transform="translate(793,673)"/>
<path d="M0 0 C0.53625 0.226875 1.0725 0.45375 1.625 0.6875 C-1.02238916 2.1481285 -2.26948334 2.6875 -5.375 2.6875 C-5.375 3.3475 -5.375 4.0075 -5.375 4.6875 C39.835 4.6875 85.045 4.6875 131.625 4.6875 C131.625 5.0175 131.625 5.3475 131.625 5.6875 C85.755 5.6875 39.885 5.6875 -7.375 5.6875 C-7.705 4.6975 -8.035 3.7075 -8.375 2.6875 C-2.95961538 -0.38942308 -2.95961538 -0.38942308 0 0 Z " fill="#CECECE" transform="translate(427.375,676.3125)"/>
<path d="M0 0 C4.4377243 3.69333184 8.57193921 7.51521185 12.59155273 11.65722656 C20.23896592 19.53482945 28.13364344 26.54052522 37 33 C37.6717627 33.49483887 38.34352539 33.98967773 39.03564453 34.49951172 C48.35423423 41.33799871 57.82042803 47.51496914 68 53 C66 54 66 54 64.0546875 53.44140625 C63.33539062 53.15136719 62.61609375 52.86132812 61.875 52.5625 C61.15054688 52.27503906 60.42609375 51.98757813 59.6796875 51.69140625 C58.84824219 51.34916016 58.84824219 51.34916016 58 51 C58 50.34 58 49.68 58 49 C55.69 48.67 53.38 48.34 51 48 C51 47.34 51 46.68 51 46 C50.4225 45.7525 49.845 45.505 49.25 45.25 C46.66463539 43.81368633 45.09510609 42.09510609 43 40 C39.41742165 37.00170481 36.25195285 34.38521626 31.75 33 C27.98595914 31.63125787 27.05626735 29.33257122 25 26 C24.01 25.67 23.02 25.34 22 25 C20.5625 23.5390625 20.5625 23.5390625 19 21.625 C15.90333239 17.98030806 12.67496231 14.52225414 9.3125 11.125 C8.40113281 10.19945312 7.48976563 9.27390625 6.55078125 8.3203125 C4.37390813 6.3401247 2.69521588 5.09828469 0 4 C0 2.68 0 1.36 0 0 Z " fill="#9B9B9B" transform="translate(709,612)"/>
<path d="M0 0 C0.66 0 1.32 0 2 0 C2.0501123 0.78012451 2.10022461 1.56024902 2.15185547 2.36401367 C2.38701893 5.97225304 2.63096915 9.57984991 2.875 13.1875 C2.95363281 14.41404297 3.03226562 15.64058594 3.11328125 16.90429688 C3.59870755 23.9803187 4.35399391 30.92197075 5.50048828 37.92114258 C5.97806815 40.86481788 6.39347636 43.8089147 6.78125 46.765625 C6.90113281 47.67570312 7.02101563 48.58578125 7.14453125 49.5234375 C7.38351358 51.35651079 7.62045972 53.18985058 7.85546875 55.0234375 C8.53064993 60.11996644 9.39290693 65.04661612 10.71289062 70.01855469 C11.04074908 72.28122412 10.68521942 73.83659523 10 76 C9.72285156 74.86820312 9.44570313 73.73640625 9.16015625 72.5703125 C8.79439512 71.08851098 8.42850289 69.60674182 8.0625 68.125 C7.78889648 67.00544922 7.78889648 67.00544922 7.50976562 65.86328125 C6.54790308 61.82960875 6.54790308 61.82960875 5 58 C4.67077125 55.73430763 4.38769286 53.46186715 4.125 51.1875 C3.57418684 46.44366243 2.97383307 41.72155069 2.203125 37.0078125 C0.19986026 24.57131891 -0.34436601 12.58849072 0 0 Z " fill="#727272" transform="translate(288,296)"/>
<path d="M0 0 C0.33 0 0.66 0 1 0 C1.76728788 4.84674729 2.173648 9.54988109 2.31640625 14.46484375 C2.33718735 15.14301651 2.35796844 15.82118927 2.37937927 16.51991272 C2.44409309 18.65901831 2.5033909 20.79823296 2.5625 22.9375 C2.60575984 24.39909924 2.64937634 25.86068797 2.69335938 27.32226562 C2.79969251 30.8813984 2.9011733 34.44064997 3 38 C2.67 37.34 2.34 36.68 2 36 C1.01 36.495 1.01 36.495 0 37 C-0.56063562 38.83149018 -0.56063562 38.83149018 -0.8515625 41.03515625 C-0.98046875 41.84404297 -1.109375 42.65292969 -1.2421875 43.48632812 C-1.36851562 44.33646484 -1.49484375 45.18660156 -1.625 46.0625 C-1.82609375 47.34350586 -1.82609375 47.34350586 -2.03125 48.65039062 C-2.36213574 50.76569589 -2.68208799 52.88270604 -3 55 C-3.33 55 -3.66 55 -4 55 C-3.86125385 51.22887069 -3.71278907 47.45818555 -3.5625 43.6875 C-3.52318359 42.61564453 -3.48386719 41.54378906 -3.44335938 40.43945312 C-3.40146484 39.41142578 -3.35957031 38.38339844 -3.31640625 37.32421875 C-3.27974854 36.37635498 -3.24309082 35.42849121 -3.20532227 34.4519043 C-3 32 -3 32 -2 29 C-1.86380609 27.38322379 -1.77577245 25.76212509 -1.71875 24.140625 C-1.68136719 23.18929688 -1.64398438 22.23796875 -1.60546875 21.2578125 C-1.57066406 20.26523437 -1.53585937 19.27265625 -1.5 18.25 C-1.28088073 12.09842941 -1.01836775 6.0762609 0 0 Z " fill="#232323" transform="translate(286,285)"/>
<path d="M0 0 C0.99 0.33 1.98 0.66 3 1 C4.47666292 4.49029418 4.07164685 8.27436386 4 12 C4.66 12 5.32 12 6 12 C7.85776765 15.13498292 8.20140476 17.37471432 8 21 C8.66 21 9.32 21 10 21 C10.10957031 21.56847656 10.21914063 22.13695312 10.33203125 22.72265625 C12.09362417 31.60826461 12.09362417 31.60826461 17 39 C17.5625 41.05859375 17.5625 41.05859375 18 43.4375 C18.60457053 46.71405634 19.086971 48.1304565 21 51 C20.625 53.1875 20.625 53.1875 20 55 C0 17.8125 0 17.8125 0 0 Z " fill="#606060" transform="translate(336,216)"/>
<path d="M0 0 C0 0.66 0 1.32 0 2 C-0.598125 2.268125 -1.19625 2.53625 -1.8125 2.8125 C-4.04254963 3.87102051 -4.04254963 3.87102051 -5.5 5.625 C-7 7 -7 7 -11 7 C-11 7.66 -11 8.32 -11 9 C-17.17732941 12.69205955 -22.90091641 15.46850222 -29.8984375 17.15234375 C-35.1661371 18.59200472 -40.20897166 20.63736352 -45.30078125 22.59765625 C-50.16209473 24.44054066 -54.87405008 26.0954206 -60 27 C-58.51874933 24.03749867 -56.51332517 23.88220558 -53.4375 22.75 C-52.25285156 22.3065625 -51.06820312 21.863125 -49.84765625 21.40625 C-47.3180903 20.47678458 -44.78346791 19.56452961 -42.24609375 18.65625 C-34.67738524 15.9223022 -27.33803415 12.88297795 -20.0625 9.4375 C-19.29405762 9.07366211 -18.52561523 8.70982422 -17.73388672 8.33496094 C-12.99105991 6.05111214 -8.39813702 3.5809592 -3.84545898 0.93774414 C-2 0 -2 0 0 0 Z " fill="#8C8C8C" transform="translate(78,654)"/>
<path d="M0 0 C-0.99 0.66 -1.98 1.32 -3 2 C46.995 2.495 46.995 2.495 98 3 C98 3.33 98 3.66 98 4 C61.37 4 24.74 4 -13 4 C-11.72807637 1.45615274 -10.80051531 1.30631844 -8.1875 0.3125 C-7.50042969 0.04050781 -6.81335938 -0.23148438 -6.10546875 -0.51171875 C-3.70623504 -1.06812731 -2.3105636 -0.77364938 0 0 Z " fill="#232323" transform="translate(38,676)"/>
<path d="M0 0 C2.23828519 1.1006225 4.43999384 2.24059099 6.62890625 3.4375 C23.93931876 12.65742677 39.86630993 9.33142736 58.49414062 6.37255859 C64.05870227 5.50279688 69.36542167 4.74574683 75 5 C72.36686301 7.63313699 70.63680157 7.53610706 66.96875 8.03515625 C65.76605469 8.20466797 64.56335938 8.37417969 63.32421875 8.54882812 C61.43123047 8.8030957 61.43123047 8.8030957 59.5 9.0625 C57.01000762 9.40458782 54.52040048 9.74949533 52.03125 10.09765625 C50.36932617 10.32207397 50.36932617 10.32207397 48.67382812 10.55102539 C46.03663823 10.85962863 46.03663823 10.85962863 44 12 C42.0406396 12.08510205 40.07837206 12.10717656 38.1171875 12.09765625 C36.95058594 12.09443359 35.78398437 12.09121094 34.58203125 12.08789062 C33.35871094 12.07951172 32.13539063 12.07113281 30.875 12.0625 C29.64394531 12.05798828 28.41289062 12.05347656 27.14453125 12.04882812 C24.09630608 12.0370133 21.04817686 12.02054028 18 12 C18 11.34 18 10.68 18 10 C16.02 10 14.04 10 12 10 C12 9.34 12 8.68 12 8 C11.319375 7.95875 10.63875 7.9175 9.9375 7.875 C5.78348198 6.63763293 3.01625004 4.05971185 0 1 C0 0.67 0 0.34 0 0 Z " fill="#999999" transform="translate(318,411)"/>
<path d="M0 0 C1.71631433 3.04317941 2.38995032 5.61975994 2.81640625 9.078125 C2.94031738 10.06723877 3.06422852 11.05635254 3.19189453 12.07543945 C3.31419434 13.12304443 3.43649414 14.17064941 3.5625 15.25 C3.69253418 16.32016357 3.82256836 17.39032715 3.95654297 18.49291992 C4.84186874 26.00691094 5.45739186 33.49342879 5.7890625 41.05078125 C5.88176543 44.05819972 5.88176543 44.05819972 7 47 C7.22797562 49.73289293 7.41668187 52.45042204 7.5625 55.1875 C7.60568359 55.93708984 7.64886719 56.68667969 7.69335938 57.45898438 C7.79922685 59.30578375 7.9000976 61.15286834 8 63 C8.99 63 9.98 63 11 63 C10.67 68.28 10.34 73.56 10 79 C9.34 79 8.68 79 8 79 C6.5117425 73.1192155 5.83239212 67.33555128 5.55859375 61.28515625 C5.07025874 51.93686461 4.0663927 42.67225045 3 33.375 C1.73043258 22.25597268 0.62951503 11.17596258 0 0 Z " fill="#A4A4A4" transform="translate(278,523)"/>
<path d="M0 0 C0.66 0.33 1.32 0.66 2 1 C1.34 3.31 0.68 5.62 0 8 C-0.66 8 -1.32 8 -2 8 C-2 8.66 -2 9.32 -2 10 C-2.9590625 10.3403125 -2.9590625 10.3403125 -3.9375 10.6875 C-6.27193661 11.85250896 -6.27193661 11.85250896 -6.75 14.625 C-6.8325 15.40875 -6.915 16.1925 -7 17 C-8.65 17.33 -10.3 17.66 -12 18 C-12 18.66 -12 19.32 -12 20 C-12.66 20 -13.32 20 -14 20 C-14.226875 20.556875 -14.45375 21.11375 -14.6875 21.6875 C-16.73767671 25.29971612 -19.25269433 28.34553215 -23.2109375 29.828125 C-26.98094776 31.41216292 -30.03044865 33.71162753 -33.3125 36.125 C-33.95767578 36.59292969 -34.60285156 37.06085937 -35.26757812 37.54296875 C-36.84848894 38.6905929 -38.42472301 39.84465477 -40 41 C-40.66 40.67 -41.32 40.34 -42 40 C-41.44538086 39.5968457 -40.89076172 39.19369141 -40.31933594 38.77832031 C-37.79355524 36.93918012 -35.27175725 35.09465262 -32.75 33.25 C-31.87730469 32.61578125 -31.00460937 31.9815625 -30.10546875 31.328125 C-29.26113281 30.709375 -28.41679687 30.090625 -27.546875 29.453125 C-26.77182617 28.88754883 -25.99677734 28.32197266 -25.19824219 27.73925781 C-22.92166469 26.01465013 -22.92166469 26.01465013 -20.84082031 23.78417969 C-19 22 -19 22 -17 22 C-17 21.34 -17 20.68 -17 20 C-15.625 18.375 -15.625 18.375 -14 17 C-13.34 17 -12.68 17 -12 17 C-11.67 16.01 -11.34 15.02 -11 14 C-10.34 14 -9.68 14 -9 14 C-8.73316406 13.42507813 -8.46632813 12.85015625 -8.19140625 12.2578125 C-6.95935505 9.92297449 -5.55161725 7.96105816 -3.9375 5.875 C-1.76773805 3.06372737 -1.76773805 3.06372737 0 0 Z " fill="#929292" transform="translate(495,624)"/>
<path d="M0 0 C0.33 0 0.66 0 1 0 C0.25959911 20.80781803 0.25959911 20.80781803 -4.43359375 26.84375 C-6.3634212 29.50027058 -7.46365905 32.20693603 -8.6875 35.25 C-9.12449219 36.32765625 -9.56148438 37.4053125 -10.01171875 38.515625 C-10.33785156 39.33546875 -10.66398437 40.1553125 -11 41 C-11.66 41 -12.32 41 -13 41 C-13.495 43.475 -13.495 43.475 -14 46 C-14.99 46 -15.98 46 -17 46 C-15.90655186 41.95424188 -14.24525284 38.55575949 -12.1875 34.9375 C-6.05602046 23.86801626 -2.81251741 12.23995005 0 0 Z " fill="#828282" transform="translate(514,578)"/>
<path d="M0 0 C3.6177813 4.15222626 6.02039507 8.56714971 8.5 13.4375 C11.09363039 18.50525903 13.79033491 23.28497546 17 28 C17.94037462 29.65340592 18.85761107 31.32020907 19.75 33 C21.50927933 36.27947711 23.29679426 39.53495876 25.1640625 42.75390625 C25.71368652 43.70233398 25.71368652 43.70233398 26.27441406 44.66992188 C26.99946864 45.91673267 27.72790635 47.16158315 28.45996094 48.40429688 C31 52.78059832 31 52.78059832 31 55 C30.34 55 29.68 55 29 55 C29 54.01 29 53.02 29 52 C28.34 52 27.68 52 27 52 C27 51.01 27 50.02 27 49 C26.34 49 25.68 49 25 49 C24.34 47.02 23.68 45.04 23 43 C22.34 43 21.68 43 21 43 C21 42.01 21 41.02 21 40 C20.34 40 19.68 40 19 40 C18.62875 38.88625 18.2575 37.7725 17.875 36.625 C16.22492371 32.19336654 13.90768118 28.34490161 11.4296875 24.33203125 C7 17.10655738 7 17.10655738 7 13 C6.34 13 5.68 13 5 13 C4.15615325 11.58957044 3.32530504 10.17135868 2.5 8.75 C2.0359375 7.96109375 1.571875 7.1721875 1.09375 6.359375 C0 4 0 4 0 0 Z " fill="#989898" transform="translate(506,271)"/>
<path d="M0 0 C0.66 0 1.32 0 2 0 C4.69246158 4.98603996 6.87118686 10.05294773 8.8125 15.375 C9.25207031 16.57898438 9.69164062 17.78296875 10.14453125 19.0234375 C11 22 11 22 10 24 C6.95316424 18.1239596 4.37904865 12.17540289 2 6 C1.34 6 0.68 6 0 6 C-0.44730469 7.16015625 -0.89460937 8.3203125 -1.35546875 9.515625 C-11.12949383 34.8049657 -11.12949383 34.8049657 -15 41 C-16 39 -16 39 -15.2590332 36.76025391 C-14.86031006 35.84163574 -14.46158691 34.92301758 -14.05078125 33.9765625 C-13.61443359 32.95433594 -13.17808594 31.93210937 -12.72851562 30.87890625 C-12.26123047 29.80511719 -11.79394531 28.73132813 -11.3125 27.625 C-8.15316736 20.3244414 -5.24734967 13.07510182 -2.88354492 5.47412109 C-2 3 -2 3 0 0 Z " fill="#AAAAAA" transform="translate(155,542)"/>
<path d="M0 0 C0.66 0.33 1.32 0.66 2 1 C1.38125 1.721875 0.7625 2.44375 0.125 3.1875 C-1.83666353 5.78381938 -2.95316 7.94671666 -4 11 C-4.66 11 -5.32 11 -6 11 C-6.2371875 11.59167969 -6.474375 12.18335938 -6.71875 12.79296875 C-8.28568389 15.49210791 -9.90531661 16.5922906 -12.5 18.3125 C-15.29090097 20.17714543 -18.05005142 22.03728902 -20.7421875 24.04296875 C-22.04542969 25.01169922 -22.04542969 25.01169922 -23.375 26 C-24.16648437 26.598125 -24.95796875 27.19625 -25.7734375 27.8125 C-28 29 -28 29 -30.13916016 28.57421875 C-31.06027588 28.28998047 -31.06027588 28.28998047 -32 28 C-29.2542363 25.86948081 -26.50267783 23.74657608 -23.75 21.625 C-22.97269531 21.02171875 -22.19539063 20.4184375 -21.39453125 19.796875 C-20.64042969 19.21679688 -19.88632813 18.63671875 -19.109375 18.0390625 C-18.41811523 17.50490723 -17.72685547 16.97075195 -17.01464844 16.42041016 C-15.07458153 15.05258305 -13.14943641 13.99885574 -11 13 C-11 12.34 -11 11.68 -11 11 C-9.35546875 9.4140625 -9.35546875 9.4140625 -7.1875 7.625 C-4.35520187 5.2828081 -2.10737561 3.01813415 0 0 Z " fill="#626262" transform="translate(110,625)"/>
<path d="M0 0 C3.01568405 2.85696384 5.24831333 5.24638571 7 9 C7.53625 9.53625 8.0725 10.0725 8.625 10.625 C9.07875 11.07875 9.5325 11.5325 10 12 C10 12.66 10 13.32 10 14 C10.66 14 11.32 14 12 14 C12.433125 15.19625 12.86625 16.3925 13.3125 17.625 C15.40265516 22.36168255 18.24728228 26.21560977 21.4375 30.25 C22.13709839 31.13486084 22.13709839 31.13486084 22.85083008 32.03759766 C25.71030051 35.57903803 28.74857231 38.80778705 32 42 C33.12042201 43.25652533 34.22731495 44.52542005 35.3125 45.8125 C36.08013672 46.71935547 36.08013672 46.71935547 36.86328125 47.64453125 C37.23839844 48.09183594 37.61351562 48.53914063 38 49 C21.49514398 42.14234856 7.47465673 17.39036464 0 2 C0 1.34 0 0.68 0 0 Z " fill="#AEAEAE" transform="translate(357,271)"/>
<path d="M0 0 C1 3 1 3 0.36328125 4.76171875 C0.01652344 5.39722656 -0.33023437 6.03273438 -0.6875 6.6875 C-1.06003906 7.39132813 -1.43257813 8.09515625 -1.81640625 8.8203125 C-2.40228516 9.89925781 -2.40228516 9.89925781 -3 11 C-5.62056307 15.94055977 -7.64074765 20.56299059 -9 26 C-9.66 26 -10.32 26 -11 26 C-11.103125 27.0725 -11.20625 28.145 -11.3125 29.25 C-12 33 -12 33 -13.38671875 34.703125 C-15.72158819 38.02734589 -16.47447909 41.60302054 -17.5 45.5 C-19.89690722 54.60824742 -19.89690722 54.60824742 -23 58 C-22.33245725 53.31268892 -21.17598406 48.87945441 -19.75 44.375 C-19.52675049 43.66915771 -19.30350098 42.96331543 -19.07348633 42.23608398 C-16.06391281 32.9027036 -12.07520536 24.0646718 -7.9375 15.1875 C-7.60903076 14.48181885 -7.28056152 13.7761377 -6.94213867 13.04907227 C-4.82531085 8.56846218 -2.5085273 4.27399418 0 0 Z " fill="#9B9B9B" transform="translate(362,27)"/>
<path d="M0 0 C3.19417015 1.06472338 4.65144013 1.65144013 7 4 C8.33942829 7.21533848 9.39952235 10.33900377 10.31323242 13.69165039 C11.48127276 18.10968132 11.48127276 18.10968132 15 21 C15.66015625 23.94140625 15.66015625 23.94140625 16.0625 27.5625 C16.5757438 31.77627472 17.11681792 35.87561875 18.125 40 C18.93647919 43.39172942 19.17965943 46.49664118 19 50 C16.60128006 46.40192009 16.06492532 42.97322862 15.25 38.8125 C12.71010168 26.73029399 9.02139759 15.32134383 2.19921875 4.91796875 C1 3 1 3 0 0 Z " fill="#8D8D8D" transform="translate(259,473)"/>
<path d="M0 0 C5.77371877 0.60088476 11.16829657 1.67015862 16.75 3.25 C17.5349585 3.47034912 18.31991699 3.69069824 19.12866211 3.91772461 C25.64507098 5.79834379 31.82860319 8.18401449 38 11 C39.74990104 11.77105797 41.49989277 12.54191015 43.25 13.3125 C44.50066299 13.87352436 45.75094605 14.43540238 47 15 C43.87250951 16.56374525 41.69020303 15.16043785 38.4375 14.125 C37.26058594 13.75632812 36.08367188 13.38765625 34.87109375 13.0078125 C32 12 32 12 31 11 C29.65252916 10.76924918 28.29622435 10.58846937 26.9375 10.4375 C25.638125 10.293125 24.33875 10.14875 23 10 C23 9.34 23 8.68 23 8 C22.18015625 7.80664062 21.3603125 7.61328125 20.515625 7.4140625 C18.89914062 7.02347656 18.89914062 7.02347656 17.25 6.625 C16.18265625 6.36976563 15.1153125 6.11453125 14.015625 5.8515625 C11.42360116 5.11961795 9.37931542 4.2098214 7 3 C4.67504723 2.61250787 2.34148732 2.27017161 0 2 C0 1.34 0 0.68 0 0 Z " fill="#7F7F7F" transform="translate(499,414)"/>
<path d="M0 0 C4.87974677 3.40678617 7.88056148 7.63288391 11.25 12.4375 C11.81485107 13.23140137 12.37970215 14.02530273 12.96166992 14.84326172 C14.65025661 17.22255769 16.3275129 19.60936577 18 22 C18.48742676 22.69657715 18.97485352 23.3931543 19.47705078 24.11083984 C22.00246619 27.72847268 24.50979894 31.35800052 27 35 C26.67 35.66 26.34 36.32 26 37 C22.15998783 33.38427173 19.21066184 29.64414657 16.3125 25.25 C13.76710882 20.99418187 13.76710882 20.99418187 10 18 C9.896875 17.2575 9.79375 16.515 9.6875 15.75 C8.55973284 11.23893137 5.06121975 8.94649329 1.6875 5.9375 C0 4 0 4 0 0 Z " fill="#808080" transform="translate(624,492)"/>
<path d="M0 0 C0.33 0 0.66 0 1 0 C2.68508147 8.87983446 3.51938671 17.67181933 4.0625 26.6875 C4.2159196 29.19166285 4.37324337 31.6955907 4.53515625 34.19921875 C4.600979 35.29065186 4.66680176 36.38208496 4.73461914 37.5065918 C4.72943494 39.93886782 4.72943494 39.93886782 6 41 C6.23678716 43.69235776 6.42198025 46.36498156 6.5625 49.0625 C6.60568359 49.82111328 6.64886719 50.57972656 6.69335938 51.36132812 C6.79973633 53.24065438 6.90039934 55.12030244 7 57 C6.34 56.67 5.68 56.34 5 56 C4.42163086 53.82958984 4.42163086 53.82958984 3.96484375 50.9609375 C3.7956543 49.91284912 3.62646484 48.86476074 3.45214844 47.78491211 C3.28231445 46.65964111 3.11248047 45.53437012 2.9375 44.375 C2.7612207 43.23232666 2.58494141 42.08965332 2.40332031 40.91235352 C0.35576063 27.2480859 -0.16315667 13.7958027 0 0 Z " fill="#232323" transform="translate(331,160)"/>
<path d="M0 0 C3.2116403 3.75284798 5.57285843 7.68673208 7.8125 12.0625 C10.3368973 16.89801532 12.92187461 21.67102145 15.6875 26.375 C16.24824219 27.33148438 16.80898438 28.28796875 17.38671875 29.2734375 C18.44129613 31.05574988 19.5060137 32.83211142 20.58203125 34.6015625 C21.04996094 35.39304688 21.51789063 36.18453125 22 37 C22.4125 37.680625 22.825 38.36125 23.25 39.0625 C24.1709445 41.44160663 23.8440534 42.63665048 23 45 C22.67 44.01 22.34 43.02 22 42 C21.34 42 20.68 42 20 42 C20 40.68 20 39.36 20 38 C19.34 38 18.68 38 18 38 C17.63648438 37.154375 17.27296875 36.30875 16.8984375 35.4375 C14.19870763 29.34580183 11.50639963 24.02482447 7.32421875 18.84375 C4.57710992 15.01886691 3 10.72657594 3 6 C2.34 6 1.68 6 1 6 C0.67 4.02 0.34 2.04 0 0 Z " fill="#A4A4A4" transform="translate(436,145)"/>
<path d="M0 0 C4.71403788 0.47939368 8.66579301 0.96834048 13 3 C13 3.66 13 4.32 13 5 C14.06734375 5.38865234 14.06734375 5.38865234 15.15625 5.78515625 C18.17850734 7.07625794 20.74996289 8.64147857 23.5 10.4375 C26.22708168 12.21086912 28.91271911 13.95185354 31.76171875 15.5234375 C34.79452952 17.52413989 35.15825727 19.556507 36 23 C32.17591927 21.3373562 29.10870531 18.82801874 25.875 16.25 C17.7917221 9.93195732 9.51077703 4.90539153 0 1 C0 0.67 0 0.34 0 0 Z " fill="#939393" transform="translate(450,457)"/>
<path d="M0 0 C3.51521178 0.56819653 6.17941417 1.44245883 9.2578125 3.22265625 C10.43657959 3.90146851 10.43657959 3.90146851 11.63916016 4.59399414 C12.4594873 5.07860107 13.27981445 5.56320801 14.125 6.0625 C15.38836182 6.80197876 15.38836182 6.80197876 16.67724609 7.55639648 C33.8734664 17.7469328 33.8734664 17.7469328 36 22 C33.36 21.34 30.72 20.68 28 20 C28 19.34 28 18.68 28 18 C26.68 17.67 25.36 17.34 24 17 C24 16.34 24 15.68 24 15 C23.34 15 22.68 15 22 15 C21.42378906 14.39542969 20.84757813 13.79085938 20.25390625 13.16796875 C17.63563022 10.649523 15.30698059 9.6360754 11.9375 8.3125 C10.89464844 7.89613281 9.85179687 7.47976563 8.77734375 7.05078125 C6.86605272 6.3276627 4.93864397 5.64621466 3 5 C2.67 4.01 2.34 3.02 2 2 C1.34 1.34 0.68 0.68 0 0 Z " fill="#8C8C8C" transform="translate(546,430)"/>
<path d="M0 0 C4.55010898 4.2743448 8.22668134 9.03851802 12 14 C13.35108279 15.75834942 14.70444637 17.51492961 16.05786133 19.27148438 C18.0409247 21.84585225 20.02041599 24.42295602 22 27 C21.01 27.33 20.02 27.66 19 28 C18.7525 27.38125 18.505 26.7625 18.25 26.125 C16.79371361 23.64931313 15.62187494 23.04874998 13 22 C13 21.34 13 20.68 13 20 C12.34 20 11.68 20 11 20 C9.375 18.6875 9.375 18.6875 8 17 C8 16.01 8 15.02 8 14 C7.34 14 6.68 14 6 14 C5.80664062 13.43410156 5.61328125 12.86820313 5.4140625 12.28515625 C5.15367187 11.55167969 4.89328125 10.81820312 4.625 10.0625 C4.24214844 8.96615234 4.24214844 8.96615234 3.8515625 7.84765625 C3.14728587 5.81317884 3.14728587 5.81317884 1 5 C0.375 2.4375 0.375 2.4375 0 0 Z " fill="#717171" transform="translate(687,584)"/>
<path d="M0 0 C-1.24976756 3.65316671 -1.67098753 4.78065836 -5 7 C-6.61257339 7.35397952 -8.24121217 7.63744628 -9.875 7.875 C-14.22988761 8.5922081 -18.25136443 9.66712148 -22.4375 11.0625 C-28.62295517 13.05756887 -34.52410003 13.76663424 -41 14 C-37.29631717 11.81798531 -33.34016018 11.12115487 -29.1875 10.25 C-20.4316274 8.30993986 -7.98136374 0 0 0 Z " fill="#AFAFAF" transform="translate(245,419)"/>
<path d="M0 0 C3.3014019 2.80619161 5.05669683 6.18040412 7 10 C7 11.32 7 12.64 7 14 C4.71077856 13.60530665 3.34271639 13.36042514 1.71484375 11.6484375 C-1.23703949 8.81086409 -4.9871346 7.26647782 -8.6015625 5.40234375 C-11 4 -11 4 -12 2 C-9.525 2.495 -9.525 2.495 -7 3 C-7 3.66 -7 4.32 -7 5 C-5.02 5 -3.04 5 -1 5 C-1 5.66 -1 6.32 -1 7 C-0.34 7 0.32 7 1 7 C0.67 4.69 0.34 2.38 0 0 Z " fill="#747474" transform="translate(565,376)"/>
<path d="M0 0 C0.33 0 0.66 0 1 0 C1.05014865 4.87059091 1.08606618 9.74102533 1.10986328 14.61181641 C1.11980362 16.26223372 1.13336063 17.912634 1.15087891 19.56298828 C1.27929264 31.9889058 1.22138393 44.14245385 -3 56 C-3.33 56 -3.66 56 -4 56 C-3.67 50.72 -3.34 45.44 -3 40 C-2.34 40 -1.68 40 -1 40 C-0.67 26.8 -0.34 13.6 0 0 Z " fill="#363636" transform="translate(518,538)"/>
<path d="M0 0 C6.38526627 2.77418122 10.22035064 5.32205798 13.34765625 11.78515625 C15.60104763 16.16941418 18.4276821 20.070163 21.2578125 24.09765625 C22.91890448 26.86490141 23.61583089 28.82769449 24 32 C21.49927368 29.71927893 19.96215357 27.38229706 18.3125 24.4375 C13.65121164 16.52254006 7.97638602 9.62092988 1.25 3.375 C0 2 0 2 0 0 Z " fill="#A4A4A4" transform="translate(486,480)"/>
<path d="M0 0 C-7.57602894 2.15228095 -15.0044297 3.52501728 -22.83007812 4.26513672 C-24.56135836 4.44530178 -26.2828828 4.71486984 -28 5 C-28.33 5.66 -28.66 6.32 -29 7 C-26.03 7.495 -26.03 7.495 -23 8 C-26.40401948 9.13732426 -28.77456664 8.83989957 -32.25 8.0625 C-33.14203125 7.86785156 -34.0340625 7.67320312 -34.953125 7.47265625 C-35.62859375 7.31667969 -36.3040625 7.16070312 -37 7 C-35 4 -35 4 -31.99072266 3.18457031 C-30.7279248 2.98444336 -29.46512695 2.78431641 -28.1640625 2.578125 C-27.4883017 2.46901794 -26.81254089 2.35991089 -26.11630249 2.24749756 C-24.68658845 2.01959932 -23.25584217 1.79809837 -21.82421875 1.58251953 C-19.63779037 1.25193389 -17.45582652 0.89914646 -15.2734375 0.54296875 C-3.61623489 -1.29126932 -3.61623489 -1.29126932 0 0 Z " fill="#ADADAD" transform="translate(201,434)"/>
<path d="M0 0 C2.29282415 2.92817993 4.17823405 5.93307328 5.99609375 9.17578125 C6.55490234 10.16900391 7.11371094 11.16222656 7.68945312 12.18554688 C8.26630859 13.21744141 8.84316406 14.24933594 9.4375 15.3125 C10.5819237 17.35032082 11.72645245 19.38808265 12.87109375 21.42578125 C13.40718262 22.38693848 13.94327148 23.3480957 14.49560547 24.33837891 C15.78471978 26.6191196 17.12052773 28.86199294 18.47265625 31.10546875 C18.97667969 32.06066406 19.48070312 33.01585937 20 34 C19.67 34.66 19.34 35.32 19 36 C18.67 35.01 18.34 34.02 18 33 C17.34 33 16.68 33 16 33 C15.65743164 32.3702124 15.31486328 31.7404248 14.96191406 31.09155273 C13.39203167 28.20645659 11.82102464 25.3219743 10.25 22.4375 C9.71117187 21.44685547 9.17234375 20.45621094 8.6171875 19.43554688 C8.08867187 18.46552734 7.56015625 17.49550781 7.015625 16.49609375 C6.50064453 15.54847168 5.98566406 14.60084961 5.45507812 13.62451172 C4.21901373 11.39503315 2.92954909 9.21507334 1.609375 7.03515625 C0 4 0 4 0 0 Z " fill="#9D9D9D" transform="translate(460,188)"/>
<path d="M0 0 C4.84615812 0.62361415 9.16213625 2.04137377 13.6875 3.8125 C15.09748187 4.35331943 16.50763919 4.89368167 17.91796875 5.43359375 C18.60681152 5.69897949 19.2956543 5.96436523 20.00537109 6.23779297 C24.31489597 7.8845906 28.65964026 9.43673484 33 11 C33 11.66 33 12.32 33 13 C29.625 13.1875 29.625 13.1875 26 13 C25.34 12.01 24.68 11.02 24 10 C21.3292243 9.08521379 21.3292243 9.08521379 18.25 8.5 C13.76195788 7.47584702 10.03757236 6.26497962 6 4 C5.071875 3.649375 4.14375 3.29875 3.1875 2.9375 C1 2 1 2 0 0 Z " fill="#929292" transform="translate(261,668)"/>
<path d="M0 0 C1 3 1 3 -0.1796875 5.7421875 C-0.73914063 6.77601563 -1.29859375 7.80984375 -1.875 8.875 C-3.89149738 12.61724398 -5.39213173 15.77609483 -6 20 C-6.66 20 -7.32 20 -8 20 C-8 20.99 -8 21.98 -8 23 C-8.99 23 -9.98 23 -11 23 C-11.061875 23.556875 -11.12375 24.11375 -11.1875 24.6875 C-12.33373872 27.94987173 -14.49390197 29.68667874 -17 32 C-17 27.82497898 -14.76178768 25.47377758 -12.4375 22.1875 C-7.54227622 15.08916356 -3.63652785 7.81492242 0 0 Z " fill="#939393" transform="translate(138,583)"/>
<path d="M0 0 C6.03748977 0.80499864 12.01270113 1.88482498 18 3 C18 3.66 18 4.32 18 5 C18.598125 5.12375 19.19625 5.2475 19.8125 5.375 C22 6 22 6 25 8 C25 8.66 25 9.32 25 10 C26.32 10.33 27.64 10.66 29 11 C29 11.66 29 12.32 29 13 C24.85975726 11.71572973 21.14499544 10.1432036 17.3125 8.125 C11.68555381 5.25166578 5.9861903 3.00325266 0 1 C0 0.67 0 0.34 0 0 Z " fill="#818181" transform="translate(524,365)"/>
<path d="M0 0 C2.22782166 4.04992163 2.5135653 7.89804671 2.875 12.4375 C3.62591344 20.80400231 5.00869496 28.93227192 6.76708984 37.14428711 C6.94062988 37.9822583 7.11416992 38.82022949 7.29296875 39.68359375 C7.53309692 40.79045532 7.53309692 40.79045532 7.77807617 41.91967773 C8.02153567 44.20187618 7.68436816 45.82408383 7 48 C6.72285156 46.86820312 6.44570313 45.73640625 6.16015625 44.5703125 C5.79439512 43.08851098 5.42850289 41.60674182 5.0625 40.125 C4.78889648 39.00544922 4.78889648 39.00544922 4.50976562 37.86328125 C3.54790308 33.82960875 3.54790308 33.82960875 2 30 C1.77588512 27.75148507 1.60697706 25.49736931 1.46484375 23.2421875 C1.42186661 22.57913605 1.37888947 21.91608459 1.33460999 21.23294067 C1.19819167 19.11386277 1.06777719 16.99446345 0.9375 14.875 C0.8460981 13.43877689 0.75430607 12.00257856 0.66210938 10.56640625 C0.43687752 7.0445471 0.21702886 3.52237524 0 0 Z " fill="#A1A1A1" transform="translate(291,324)"/>
<path d="M0 0 C-2.97 0.99 -5.94 1.98 -9 3 C-4.545 3.99 -4.545 3.99 0 5 C0 5.66 0 6.32 0 7 C-6.93 6.01 -13.86 5.02 -21 4 C-20.67 3.01 -20.34 2.02 -20 1 C-17.41765641 0.63667026 -14.83460218 0.28405133 -12.25 -0.0625 C-11.52039063 -0.16626953 -10.79078125 -0.27003906 -10.0390625 -0.37695312 C-6.25302738 -0.87602139 -3.75922876 -0.93980719 0 0 Z " fill="#2E2E2E" transform="translate(193,437)"/>
<path d="M0 0 C2.60445336 1.30222668 2.83931591 2.43638075 4.0625 5.0625 C5.71446973 8.50119228 7.45957245 11.84811903 9.36328125 15.15234375 C9.77634521 15.86962646 10.18940918 16.58690918 10.61499023 17.32592773 C11.45069411 18.76788531 12.29260526 20.20626432 13.14086914 21.64086914 C14.15337727 23.39422651 15.08441174 25.19413929 16 27 C15.67 27.66 15.34 28.32 15 29 C14.01 28.34 13.02 27.68 12 27 C12 26.01 12 25.02 12 24 C11.34 24 10.68 24 10 24 C9.3503125 22.1746875 9.3503125 22.1746875 8.6875 20.3125 C6.87685023 15.50960272 5.37240975 11.91493984 1 9 C0.48828125 6.8359375 0.48828125 6.8359375 0.3125 4.375 C0.24675781 3.55773437 0.18101562 2.74046875 0.11328125 1.8984375 C0.07589844 1.27195312 0.03851562 0.64546875 0 0 Z " fill="#898989" transform="translate(537,326)"/>
<path d="M0 0 C0.66 0.33 1.32 0.66 2 1 C-9.21359223 10 -9.21359223 10 -16 10 C-16 10.66 -16 11.32 -16 12 C-20.95 13.485 -20.95 13.485 -26 15 C-26 14.34 -26 13.68 -26 13 C-24.68 12.67 -23.36 12.34 -22 12 C-22 11.34 -22 10.68 -22 10 C-21.24976563 9.69707031 -20.49953125 9.39414062 -19.7265625 9.08203125 C-13.63833243 6.58999753 -7.75002596 3.94904316 -1.9609375 0.8203125 C-1.31382812 0.54960938 -0.66671875 0.27890625 0 0 Z " fill="#828282" transform="translate(451,665)"/>
<path d="M0 0 C2.89852365 1.31307372 4.98277217 2.72684638 7.234375 4.96875 C8.09482422 5.82533203 8.09482422 5.82533203 8.97265625 6.69921875 C9.85244141 7.59060547 9.85244141 7.59060547 10.75 8.5 C11.35199219 9.09425781 11.95398438 9.68851562 12.57421875 10.30078125 C13.14269531 10.87183594 13.71117187 11.44289063 14.296875 12.03125 C14.81604492 12.55267578 15.33521484 13.07410156 15.87011719 13.61132812 C17 15 17 15 17 17 C17.66 17 18.32 17 19 17 C20.5078125 18.53125 20.5078125 18.53125 22.125 20.5 C22.93324219 21.47453125 22.93324219 21.47453125 23.7578125 22.46875 C24.16773438 22.9740625 24.57765625 23.479375 25 24 C24.67 24.66 24.34 25.32 24 26 C21.88873076 24.11160369 19.78612242 22.21486442 17.6875 20.3125 C17.09259766 19.78205078 16.49769531 19.25160156 15.88476562 18.70507812 C12.56850714 15.68524498 10.21600349 12.9425829 8 9 C6.00334402 7.32932867 4.00348966 5.66247014 2 4 C0.625 1.6875 0.625 1.6875 0 0 Z " fill="#B4B4B4" transform="translate(599,466)"/>
<path d="M0 0 C2.01067098 6.03201293 -1.78716196 13.35636462 -4.34765625 18.9375 C-5.19391865 20.59548347 -6.05881591 22.24420382 -6.94921875 23.87890625 C-7.96151883 25.9223224 -8.5406473 27.77390615 -9 30 C-10.65 30 -12.3 30 -14 30 C-13.70867187 29.48953125 -13.41734375 28.9790625 -13.1171875 28.453125 C-7.92956995 19.25244482 -3.04415055 10.14716852 0 0 Z " fill="#9D9D9D" transform="translate(272,378)"/>
<path d="M0 0 C3.17945408 0.36970396 5.55558686 0.72974876 8.3125 2.40625 C11.24863671 4.14744735 14.06421353 5.15233178 17.3125 6.1875 C18.38113281 6.53167969 19.44976562 6.87585938 20.55078125 7.23046875 C21.35902344 7.48441406 22.16726563 7.73835938 23 8 C23 8.66 23 9.32 23 10 C24.65 10 26.3 10 28 10 C28 10.33 28 10.66 28 11 C17.4414537 11.99608927 8.86222698 6.14227985 0 1 C0 0.67 0 0.34 0 0 Z " fill="#626262" transform="translate(410,331)"/>
<path d="M0 0 C0 0.33 0 0.66 0 1 C-1.258125 1.09796875 -2.51625 1.1959375 -3.8125 1.296875 C-13.69980396 2.13618 -23.04824065 3.45071375 -32.6171875 6.09765625 C-35.7396265 6.93054702 -38.80573302 7.52623257 -42 8 C-40.30021387 4.60042774 -36.42303603 4.14925036 -33 3 C-31.9275 2.62875 -30.855 2.2575 -29.75 1.875 C-20.00332316 -0.3992246 -9.95346533 -0.13251655 0 0 Z " fill="#A7A7A7" transform="translate(385,446)"/>
<path d="M0 0 C0.33 0 0.66 0 1 0 C1.86809439 5.20173095 2.12515348 10.16978816 2.0625 15.4375 C2.05798828 16.16904297 2.05347656 16.90058594 2.04882812 17.65429688 C2.03718148 19.43623419 2.01925191 21.21812863 2 23 C1.67 23 1.34 23 1 23 C0.67 24.65 0.34 26.3 0 28 C-0.33 28 -0.66 28 -1 28 C-1.02929977 24.64585201 -1.0468989 21.29173747 -1.0625 17.9375 C-1.07087891 16.99455078 -1.07925781 16.05160156 -1.08789062 15.08007812 C-1.10581103 9.9369232 -0.89259611 5.06741573 0 0 Z " fill="#2C2C2C" transform="translate(286,285)"/>
<path d="M0 0 C0.33 0 0.66 0 1 0 C0.38505502 17.28207456 0.38505502 17.28207456 -3 25 C-3.66 25.33 -4.32 25.66 -5 26 C-4.56901343 17.03547936 -2.30110566 8.62647053 0 0 Z " fill="#686868" transform="translate(514,578)"/>
<path d="M0 0 C-4.11789897 2.74526598 -8.49487728 4.94098769 -12.87109375 7.24609375 C-15.44139317 8.68687333 -17.70955472 10.15976509 -20 12 C-20.66 11.67 -21.32 11.34 -22 11 C-21.0409375 10.38125 -21.0409375 10.38125 -20.0625 9.75 C-17.81234164 8.22713409 -17.81234164 8.22713409 -17.6875 6 C-17 4 -17 4 -13.75 2.3125 C-8.97438227 0.64103379 -5.05268016 -0.14436229 0 0 Z " fill="#717171" transform="translate(343,454)"/>
<path d="M0 0 C0.66 0.33 1.32 0.66 2 1 C-2.72998421 7.02994676 -8.04536256 12.56345386 -15 16 C-17.14575195 15.57202148 -17.14575195 15.57202148 -19 15 C-18.49549316 14.61666504 -17.99098633 14.23333008 -17.47119141 13.83837891 C-15.18794059 12.1021405 -12.90645336 10.36359951 -10.625 8.625 C-9.8309375 8.02171875 -9.036875 7.4184375 -8.21875 6.796875 C-7.45820312 6.21679688 -6.69765625 5.63671875 -5.9140625 5.0390625 C-5.2123291 4.50490723 -4.5105957 3.97075195 -3.78759766 3.42041016 C-1.90000268 1.97581413 -1.90000268 1.97581413 0 0 Z " fill="#8E8E8E" transform="translate(97,638)"/>
<path d="M0 0 C0.66 0 1.32 0 2 0 C4.69246158 4.98603996 6.87118686 10.05294773 8.8125 15.375 C9.25207031 16.57898438 9.69164062 17.78296875 10.14453125 19.0234375 C11 22 11 22 10 24 C6.95316424 18.1239596 4.37904865 12.17540289 2 6 C1.01 6 0.02 6 -1 6 C-0.67 4.02 -0.34 2.04 0 0 Z " fill="#969696" transform="translate(155,542)"/>
<path d="M0 0 C0.66 0 1.32 0 2 0 C1.67 4.29 1.34 8.58 1 13 C0.34 13 -0.32 13 -1 13 C-0.97679687 13.81984375 -0.95359375 14.6396875 -0.9296875 15.484375 C-0.91164063 16.56203125 -0.89359375 17.6396875 -0.875 18.75 C-0.85179687 19.81734375 -0.82859375 20.8846875 -0.8046875 21.984375 C-0.99512313 24.92470106 -1.47329896 26.52361878 -3 29 C-3.25183338 22.39636916 -2.88226704 15.98381987 -2.0625 9.4375 C-1.97564941 8.73496094 -1.88879883 8.03242187 -1.79931641 7.30859375 C-1.13339442 2.26678884 -1.13339442 2.26678884 0 0 Z " fill="#2D2D2D" transform="translate(293,523)"/>
<path d="M0 0 C2.24806737 2.24806737 2.31556379 2.91765686 2.8125 5.9375 C3.80548906 10.91051839 5.76564531 15.17160062 7.9765625 19.71484375 C9 22 9 22 9 24 C7.1015625 23.74609375 7.1015625 23.74609375 5 23 C4.0234375 21.28515625 4.0234375 21.28515625 3.375 19.0625 C3.13910156 18.25554687 2.90320313 17.44859375 2.66015625 16.6171875 C1.25724087 11.05533361 0 5.75347316 0 0 Z " fill="#868686" transform="translate(299,373)"/>
<path d="M0 0 C2.7138696 2.46640429 4.50789287 5.20535978 6.4375 8.3125 C8.9026163 12.25041883 11.3991497 16.15074156 14 20 C13.67 20.66 13.34 21.32 13 22 C12.67 21.01 12.34 20.02 12 19 C11.34 19 10.68 19 10 19 C9.67 18.01 9.34 17.02 9 16 C7.16295924 14.04048985 5.25291845 12.22582005 3.25 10.4375 C2 9 2 9 2 6 C1.34 6 0.68 6 0 6 C0 4.02 0 2.04 0 0 Z " fill="#989898" transform="translate(662,546)"/>
<path d="M0 0 C9.46512201 0.76526518 18.36892128 1.87209279 27 6 C22.22804508 7.49968006 18.27621105 6.28736711 13.5 5.25 C12.64535156 5.07984375 11.79070312 4.9096875 10.91015625 4.734375 C3.20687806 3.09998212 3.20687806 3.09998212 0 0 Z " fill="#929292" transform="translate(472,351)"/>
<path d="M0 0 C7.04998001 1.49134192 13.40721817 4.12115193 20 7 C20 7.33 20 7.66 20 8 C15.71 8 11.42 8 7 8 C7 7.67 7 7.34 7 7 C8.65 7 10.3 7 12 7 C12 6.34 12 5.68 12 5 C9.69 5 7.38 5 5 5 C4.67 4.01 4.34 3.02 4 2 C1.98491642 1.26676204 1.98491642 1.26676204 0 1 C0 0.67 0 0.34 0 0 Z " fill="#898989" transform="translate(793,673)"/>
<path d="M0 0 C4.78146593 4.76784352 7.38104368 8.17644487 8.5078125 14.9140625 C8.93986118 17.28765375 8.93986118 17.28765375 11 20 C10.625 22.1875 10.625 22.1875 10 24 C5.88311303 16.17227518 2.09408676 8.65555861 0 0 Z " fill="#8E8E8E" transform="translate(346,247)"/>
<path d="M0 0 C3.33052257 4.31059185 6.00824615 8.92685401 8.75 13.625 C9.26949219 14.49640625 9.78898437 15.3678125 10.32421875 16.265625 C10.81019531 17.09835938 11.29617188 17.93109375 11.796875 18.7890625 C12.24385742 19.54912598 12.69083984 20.30918945 13.15136719 21.09228516 C13.43141602 21.72183105 13.71146484 22.35137695 14 23 C13.67 23.66 13.34 24.32 13 25 C12.67 24.01 12.34 23.02 12 22 C11.34 22 10.68 22 10 22 C9.566875 21.113125 9.13375 20.22625 8.6875 19.3125 C6.2608764 13.814 6.2608764 13.814 2 10 C0.55487596 6.3871899 0 3.93312158 0 0 Z " fill="#929292" transform="translate(422,120)"/>
<path d="M0 0 C5.38676087 1.31722595 9.69367013 3.283722 14.4375 6.125 C15.07365234 6.49753906 15.70980469 6.87007812 16.36523438 7.25390625 C17.91423889 8.16234499 19.45771891 9.08019297 21 10 C19 11 19 11 17.0546875 10.44140625 C16.33539062 10.15136719 15.61609375 9.86132812 14.875 9.5625 C14.15054688 9.27503906 13.42609375 8.98757813 12.6796875 8.69140625 C12.12539063 8.46324219 11.57109375 8.23507812 11 8 C11 7.34 11 6.68 11 6 C8.69 5.67 6.38 5.34 4 5 C4 4.34 4 3.68 4 3 C2.68 2.34 1.36 1.68 0 1 C0 0.67 0 0.34 0 0 Z " fill="#949494" transform="translate(756,655)"/>
<path d="M0 0 C7.045966 3.76877251 13.47567498 8.40844495 20 13 C18.02 13.99 18.02 13.99 16 15 C15.938125 14.38125 15.87625 13.7625 15.8125 13.125 C15.19897616 10.81246395 15.19897616 10.81246395 12.9375 9.9375 C11.28587391 9.41038529 9.62972994 8.89572855 7.9609375 8.42578125 C5.82923433 7.75526371 3.94087881 7.11218898 2 6 C0.5 2.8125 0.5 2.8125 0 0 Z " fill="#989898" transform="translate(219,643)"/>
<path d="M0 0 C7.3540929 -0.14643105 14.70003006 0.02586892 22 1 C22.33 1.33 22.66 1.66 23 2 C24.67884238 2.3931648 26.36850045 2.74085452 28.0625 3.0625 C28.98160156 3.23910156 29.90070313 3.41570312 30.84765625 3.59765625 C31.55792969 3.73042969 32.26820313 3.86320312 33 4 C33 4.66 33 5.32 33 6 C32.35675781 5.87882812 31.71351563 5.75765625 31.05078125 5.6328125 C20.7460302 3.72180303 10.4287719 2.06055307 0 1 C0 0.67 0 0.34 0 0 Z " fill="#A5A5A5" transform="translate(404,446)"/>
<path d="M0 0 C3.87890327 3.57691253 6.37034965 6.97381253 8.875 11.6875 C9.49117188 12.82574219 10.10734375 13.96398437 10.7421875 15.13671875 C11.15726562 16.08160156 11.57234375 17.02648437 12 18 C11.67 18.66 11.34 19.32 11 20 C8.57223333 18.70519111 7.23032326 17.64161481 6.2890625 15.01953125 C5.80217802 13.0261274 5.39608139 11.01341375 5 9 C4.34 9 3.68 9 3 9 C3 7.68 3 6.36 3 5 C2.34 5 1.68 5 1 5 C0.67 3.35 0.34 1.7 0 0 Z " fill="#888888" transform="translate(382,50)"/>
<path d="M0 0 C0.53625 0.226875 1.0725 0.45375 1.625 0.6875 C-1.02238916 2.1481285 -2.26948334 2.6875 -5.375 2.6875 C-5.375 3.3475 -5.375 4.0075 -5.375 4.6875 C2.875 4.6875 11.125 4.6875 19.625 4.6875 C19.625 5.0175 19.625 5.3475 19.625 5.6875 C10.715 5.6875 1.805 5.6875 -7.375 5.6875 C-7.705 4.6975 -8.035 3.7075 -8.375 2.6875 C-2.95961538 -0.38942308 -2.95961538 -0.38942308 0 0 Z " fill="#BCBCBC" transform="translate(427.375,676.3125)"/>
<path d="M0 0 C3.40944605 1.13648202 3.60693771 1.53988286 5.26171875 4.52734375 C5.85629883 5.59178711 5.85629883 5.59178711 6.46289062 6.67773438 C7.06907227 7.79631836 7.06907227 7.79631836 7.6875 8.9375 C8.10322266 9.67935547 8.51894531 10.42121094 8.94726562 11.18554688 C12 16.71455511 12 16.71455511 12 19 C11.34 19 10.68 19 10 19 C10 18.01 10 17.02 10 16 C9.34 16 8.68 16 8 16 C8 15.01 8 14.02 8 13 C7.34 13 6.68 13 6 13 C5.34 11.02 4.68 9.04 4 7 C3.34 7 2.68 7 2 7 C2 6.01 2 5.02 2 4 C1.34 4 0.68 4 0 4 C0 2.68 0 1.36 0 0 Z " fill="#8B8B8B" transform="translate(525,307)"/>
<path d="M0 0 C3.25048942 3.84348411 5.78782869 7.82398529 8.25 12.1875 C8.61351562 12.81591797 8.97703125 13.44433594 9.3515625 14.09179688 C12 18.74647556 12 18.74647556 12 21 C11.34 21 10.68 21 10 21 C9.67 19.35 9.34 17.7 9 16 C8.34 16 7.68 16 7 16 C5.2734375 13.515625 5.2734375 13.515625 3.375 10.25 C2.74335937 9.18265625 2.11171875 8.1153125 1.4609375 7.015625 C0 4 0 4 0 0 Z " fill="#979797" transform="translate(553,355)"/>
<path d="M0 0 C3.01568405 2.85696384 5.24831333 5.24638571 7 9 C7.53625 9.53625 8.0725 10.0725 8.625 10.625 C9.07875 11.07875 9.5325 11.5325 10 12 C10 12.66 10 13.32 10 14 C10.66 14 11.32 14 12 14 C12.33 15.65 12.66 17.3 13 19 C8.1858788 16.71518941 6.12709907 13.48802351 3.6875 8.9375 C3.32849609 8.30005859 2.96949219 7.66261719 2.59960938 7.00585938 C0 2.30675595 0 2.30675595 0 0 Z " fill="#A7A7A7" transform="translate(357,271)"/>
<path d="M0 0 C4.53720323 1.01101759 8.50039843 2.96442879 12.6875 4.9375 C13.47189453 5.29779297 14.25628906 5.65808594 15.06445312 6.02929688 C15.81017578 6.37927734 16.55589844 6.72925781 17.32421875 7.08984375 C18.00572998 7.40816162 18.68724121 7.72647949 19.3894043 8.05444336 C21 9 21 9 22 11 C18.7 10.34 15.4 9.68 12 9 C12 8.34 12 7.68 12 7 C11.319375 6.7525 10.63875 6.505 9.9375 6.25 C6.43134917 4.75802092 3.28379632 2.93164489 0 1 C0 0.67 0 0.34 0 0 Z " fill="#959595" transform="translate(239,657)"/>
<path d="M0 0 C0.66 0.33 1.32 0.66 2 1 C2.31241455 3.71446979 2.51336592 6.33909361 2.625 9.0625 C2.66367187 9.82111328 2.70234375 10.57972656 2.7421875 11.36132812 C2.83673562 13.24047195 2.91946756 15.12020336 3 17 C2.01 15.68 1.02 14.36 0 13 C-0.33 15.64 -0.66 18.28 -1 21 C-1.33 21 -1.66 21 -2 21 C-2.24091535 13.7725395 -1.34495828 7.09705662 0 0 Z " fill="#B5B5B5" transform="translate(286,279)"/>
<path d="M0 0 C3.92491136 4.52874388 7.37459686 9.60598991 10 15 C9.67 15.66 9.34 16.32 9 17 C8.01 16.67 7.02 16.34 6 16 C6 15.01 6 14.02 6 13 C5.34 13 4.68 13 4 13 C3.32404685 11.58774074 2.65959941 10.16997095 2 8.75 C1.62875 7.96109375 1.2575 7.1721875 0.875 6.359375 C0 4 0 4 0 0 Z " fill="#888888" transform="translate(177,591)"/>
<path d="M0 0 C1.65 0.66 3.3 1.32 5 2 C4.67 2.66 4.34 3.32 4 4 C-6.23 4 -16.46 4 -27 4 C-27 3.67 -27 3.34 -27 3 C-18.09 2.67 -9.18 2.34 0 2 C0 1.34 0 0.68 0 0 Z " fill="#474747" transform="translate(283,677)"/>
<path d="M0 0 C6.93 0.495 6.93 0.495 14 1 C14 1.66 14 2.32 14 3 C16.31 3 18.62 3 21 3 C21.33 3.66 21.66 4.32 22 5 C14.17509977 5.62599202 7.39062767 3.32514129 0 1 C0 0.67 0 0.34 0 0 Z " fill="#3D3D3D" transform="translate(485,413)"/>
<path d="M0 0 C6.10419901 1.2457549 9.54831603 3.69715653 14 8 C12 9 12 9 8.875 8.0625 C7.92625 7.711875 6.9775 7.36125 6 7 C6 6.34 6 5.68 6 5 C4.68 4.67 3.36 4.34 2 4 C2 3.34 2 2.68 2 2 C1.34 2 0.68 2 0 2 C0 1.34 0 0.68 0 0 Z " fill="#707070" transform="translate(568,443)"/>
<path d="M0 0 C1 3 1 3 -0.5625 6.5 C-1.3633882 8.00623184 -2.1775136 9.50545245 -3 11 C-3.52980469 11.9796875 -4.05960937 12.959375 -4.60546875 13.96875 C-6.06077128 16.65120787 -7.52626883 19.32763414 -9 22 C-9.33 21.34 -9.66 20.68 -10 20 C-8.80238643 17.30906581 -7.55017742 14.73045767 -6.1875 12.125 C-5.81818359 11.40441406 -5.44886719 10.68382812 -5.06835938 9.94140625 C-4.3749521 8.58944879 -3.67827289 7.23916095 -2.97729492 5.89111328 C-1.9669644 3.93607451 -0.98022403 1.97028035 0 0 Z " fill="#A3A3A3" transform="translate(362,27)"/>
<path d="M0 0 C3.87641915 4.32369829 10 11.95808443 10 18 C9.34 18 8.68 18 8 18 C6.65590238 15.75583701 5.32470104 13.50557204 4 11.25 C3.6184375 10.61578125 3.236875 9.9815625 2.84375 9.328125 C0.82084348 5.86028524 0 4.10651746 0 0 Z " fill="#919191" transform="translate(394,70)"/>
<path d="M0 0 C1.5 1.375 1.5 1.375 3 3 C3 3.66 3 4.32 3 5 C3.66 5 4.32 5 5 5 C6.5078125 6.96875 6.5078125 6.96875 8.125 9.5 C8.66382813 10.3353125 9.20265625 11.170625 9.7578125 12.03125 C10.37269531 13.00578125 10.37269531 13.00578125 11 14 C10.67 14.66 10.34 15.32 10 16 C6.21081557 12.42734039 2.44407068 8.64893444 0 4 C0 2.68 0 1.36 0 0 Z " fill="#949494" transform="translate(676,568)"/>
<path d="M0 0 C-0.66 0 -1.32 0 -2 0 C-2 0.66 -2 1.32 -2 2 C-8.02596573 3.0712828 -13.88909517 3.09945415 -20 3 C-20 2.67 -20 2.34 -20 2 C-17.41842632 1.46867611 -14.83538244 0.94965621 -12.25 0.4375 C-11.52039063 0.28603516 -10.79078125 0.13457031 -10.0390625 -0.02148438 C-6.33442927 -0.74557178 -3.60677678 -1.09817231 0 0 Z " fill="#484848" transform="translate(213,433)"/>
<path d="M0 0 C-1.24976756 3.65316671 -1.67098753 4.78065836 -5 7 C-8.1875 7.125 -8.1875 7.125 -11 7 C-10 4 -10 4 -8.22265625 2.83203125 C-7.50980469 2.49558594 -6.79695312 2.15914063 -6.0625 1.8125 C-5.35222656 1.46832031 -4.64195312 1.12414062 -3.91015625 0.76953125 C-2 0 -2 0 0 0 Z " fill="#636363" transform="translate(245,419)"/>
<path d="M0 0 C-0.99 0.66 -1.98 1.32 -3 2 C-2.01 2.66 -1.02 3.32 0 4 C-4.29 4 -8.58 4 -13 4 C-11.72807637 1.45615274 -10.80051531 1.30631844 -8.1875 0.3125 C-7.50042969 0.04050781 -6.81335938 -0.23148438 -6.10546875 -0.51171875 C-3.70623504 -1.06812731 -2.3105636 -0.77364938 0 0 Z " fill="#2A2A2A" transform="translate(38,676)"/>
<path d="M0 0 C4.78642607 0.5746621 8.53788787 1.98245643 12.875 4.0625 C14.60363281 4.88427734 14.60363281 4.88427734 16.3671875 5.72265625 C17.67042969 6.35494141 17.67042969 6.35494141 19 7 C15.92008012 8.53995994 13.856253 7.28913714 10.625 6.3125 C9.48289062 5.97863281 8.34078125 5.64476562 7.1640625 5.30078125 C3.9204925 3.96731358 2.25653742 2.64003763 0 0 Z " fill="#9F9F9F" transform="translate(527,422)"/>
<path d="M0 0 C0.33 0 0.66 0 1 0 C1.40363636 8.07272727 1.40363636 8.07272727 -2 12 C-2.72351427 13.98014432 -3.40265389 15.97821315 -4 18 C-5.85661761 14.28676479 -4.02951678 9.86956307 -3 6 C-1.375 2.375 -1.375 2.375 0 0 Z " fill="#3B3B3B" transform="translate(276,370)"/>
<path d="M0 0 C7.57266875 -0.5939348 13.87518733 1.56713714 21 4 C17.20385878 5.38633589 14.36103968 4.62176534 10.5 3.6875 C9.3759375 3.42324219 8.251875 3.15898437 7.09375 2.88671875 C4.49510899 2.14190624 2.34546395 1.31644913 0 0 Z " fill="#383838" transform="translate(493,355)"/>
<path d="M0 0 C4.03711961 1.34570654 4.89392969 3.86666514 6.75 7.4375 C7.07871094 8.03626953 7.40742188 8.63503906 7.74609375 9.25195312 C8.5674824 10.79942162 9.29155922 12.39767365 10 14 C9.67 14.66 9.34 15.32 9 16 C4.6479004 10.86824619 1.27984587 6.68363952 0 0 Z " fill="#8F8F8F" transform="translate(496,255)"/>
<path d="M0 0 C0.33 0 0.66 0 1 0 C2.88989379 4.87070187 3.4014447 9.22391338 3.625 14.375 C3.66367187 15.11105469 3.70234375 15.84710938 3.7421875 16.60546875 C3.83557998 18.40327406 3.9188371 20.20160108 4 22 C3.34 21.67 2.68 21.34 2 21 C1.3671875 18.0859375 1.3671875 18.0859375 0.875 14.375 C0.70742188 13.16585937 0.53984375 11.95671875 0.3671875 10.7109375 C0.01106509 7.11182801 -0.06503031 3.61382733 0 0 Z " fill="#3F3F3F" transform="translate(334,195)"/>
<path d="M0 0 C0 0.66 0 1.32 0 2 C-0.598125 2.268125 -1.19625 2.53625 -1.8125 2.8125 C-4.03394582 3.83517284 -4.03394582 3.83517284 -5.25 5.5625 C-8.13252959 7.93029216 -11.34155006 7.70012705 -15 8 C-11.0826156 4.57228865 -5.47848189 0 0 0 Z " fill="#8F8F8F" transform="translate(78,654)"/>
<path d="M0 0 C4.28760645 1.40867501 6.91917898 3.48207035 10.1875 6.5625 C13.34188937 9.64185798 13.34188937 9.64185798 17 12 C16.67 12.66 16.34 13.32 16 14 C13.70400817 12.23454414 11.41321095 10.46299049 9.125 8.6875 C8.47402344 8.18798828 7.82304688 7.68847656 7.15234375 7.17382812 C6.52714844 6.68720703 5.90195312 6.20058594 5.2578125 5.69921875 C4.6817627 5.25408936 4.10571289 4.80895996 3.51220703 4.3503418 C2 3 2 3 0 0 Z " fill="#AAAAAA" transform="translate(582,452)"/>
<path d="M0 0 C1.65 0 3.3 0 5 0 C5 0.66 5 1.32 5 2 C11.6 2 18.2 2 25 2 C25 2.33 25 2.66 25 3 C21.3958502 3.02900455 17.79173038 3.04680018 14.1875 3.0625 C12.65125977 3.07506836 12.65125977 3.07506836 11.08398438 3.08789062 C9.60961914 3.09272461 9.60961914 3.09272461 8.10546875 3.09765625 C7.19949951 3.10289307 6.29353027 3.10812988 5.36010742 3.11352539 C3 3 3 3 0 2 C0 1.34 0 0.68 0 0 Z " fill="#1E1E1E" transform="translate(331,421)"/>
<path d="M0 0 C0.99 0.33 1.98 0.66 3 1 C3.33895656 2.72807318 3.67091525 4.45751974 4 6.1875 C4.185625 7.15042969 4.37125 8.11335937 4.5625 9.10546875 C4.96877612 11.7934206 5.07933572 14.28771019 5 17 C3.025333 14.03799949 2.28044646 11.90228368 1.375 8.5 C1.11460937 7.5409375 0.85421875 6.581875 0.5859375 5.59375 C0 3 0 3 0 0 Z " fill="#9E9E9E" transform="translate(336,216)"/>
<path d="M0 0 C0.763125 0.639375 1.52625 1.27875 2.3125 1.9375 C4.88246713 4.14232781 4.88246713 4.14232781 8 5 C9.60546875 6.62890625 9.60546875 6.62890625 11.1875 8.5625 C11.71730469 9.20316406 12.24710938 9.84382813 12.79296875 10.50390625 C13.39044922 11.24447266 13.39044922 11.24447266 14 12 C13.67 12.66 13.34 13.32 13 14 C10.82722848 12.04808712 8.66177539 10.08902463 6.5 8.125 C5.87996094 7.56941406 5.25992188 7.01382812 4.62109375 6.44140625 C4.03457031 5.90644531 3.44804688 5.37148438 2.84375 4.8203125 C2.29912109 4.32805176 1.75449219 3.83579102 1.19335938 3.32861328 C0 2 0 2 0 0 Z " fill="#7C7C7C" transform="translate(610,478)"/>
<path d="M0 0 C3.48670834 1.1094072 6.77484237 2.26337666 10 4 C10 2.68 10 1.36 10 0 C10.66 0 11.32 0 12 0 C12.33 2.31 12.66 4.62 13 7 C12.34 7 11.68 7 11 7 C11 6.34 11 5.68 11 5 C9.02 5 7.04 5 5 5 C4.67 4.34 4.34 3.68 4 3 C1.97536745 2.34786708 1.97536745 2.34786708 0 2 C0 1.34 0 0.68 0 0 Z " fill="#303030" transform="translate(553,376)"/>
<path d="M0 0 C3.22247374 2.5603216 3.60559182 4.88619352 4.1875 8.875 C4.42533203 10.41800781 4.42533203 10.41800781 4.66796875 11.9921875 C4.96639385 14.69556785 5.06514594 17.28391523 5 20 C2.86638446 16.4439741 2.56098323 13.0671284 2 9 C1.34490497 6.99617991 0.68025637 4.99541868 0 3 C0 2.01 0 1.02 0 0 Z " fill="#2A2A2A" transform="translate(514,518)"/>
<path d="M0 0 C5.17379682 2.24783891 8.77697025 4.16545537 12 9 C11.67 9.66 11.34 10.32 11 11 C10.67 10.01 10.34 9.02 10 8 C8.6078125 7.5359375 8.6078125 7.5359375 7.1875 7.0625 C3.75275754 5.91758585 2.25986204 4.78136866 0 2 C0 1.34 0 0.68 0 0 Z " fill="#787878" transform="translate(486,480)"/>
<path d="M0 0 C2.475 0.495 2.475 0.495 5 1 C5.33 1.99 5.66 2.98 6 4 C6.66 4 7.32 4 8 4 C9.32 6.31 10.64 8.62 12 11 C11.34 11 10.68 11 10 11 C8.64613064 9.34997172 7.31321858 7.6825613 6 6 C5.34 5.67 4.68 5.34 4 5 C4 4.34 4 3.68 4 3 C2.68 2.34 1.36 1.68 0 1 C0 0.67 0 0.34 0 0 Z " fill="#919191" transform="translate(247,462)"/>
<path d="M0 0 C0.98978537 2.61160236 1.13957134 3.66752519 0.0390625 6.2890625 C-0.42757813 7.05992188 -0.89421875 7.83078125 -1.375 8.625 C-1.83648437 9.40101562 -2.29796875 10.17703125 -2.7734375 10.9765625 C-3.17820312 11.64429688 -3.58296875 12.31203125 -4 13 C-4.33 13.66 -4.66 14.32 -5 15 C-5.66 15 -6.32 15 -7 15 C-5.34292168 9.35086937 -3.52237988 4.73699363 0 0 Z " fill="#2E2E2E" transform="translate(361,33)"/>
<path d="M0 0 C4.35522853 0.50642192 7.44239635 1.38411497 11 4 C11 4.66 11 5.32 11 6 C12.32 6.33 13.64 6.66 15 7 C14.01 7.495 14.01 7.495 13 8 C10.46875 6.85546875 10.46875 6.85546875 7.5 5.1875 C6.5203125 4.64480469 5.540625 4.10210937 4.53125 3.54296875 C2 2 2 2 0 0 Z " fill="#9A9A9A" transform="translate(410,331)"/>
<path d="M0 0 C1.32 0.66 2.64 1.32 4 2 C3.67 3.32 3.34 4.64 3 6 C1.68 6 0.36 6 -1 6 C-1.99 6.495 -1.99 6.495 -3 7 C-2.25 2.25 -2.25 2.25 0 0 Z " fill="#858585" transform="translate(366,22)"/>
<path d="M0 0 C2.64752004 2.57784846 4.94432065 4.91648098 7 8 C6.625 10.1875 6.625 10.1875 6 12 C5.67 11.01 5.34 10.02 5 9 C4.34 9 3.68 9 3 9 C3 7.68 3 6.36 3 5 C2.34 5 1.68 5 1 5 C0.67 3.35 0.34 1.7 0 0 Z " fill="#7F7F7F" transform="translate(453,178)"/>
<path d="M0 0 C7.75 -0.125 7.75 -0.125 10 1 C10 1.66 10 2.32 10 3 C10.99 3.33 11.98 3.66 13 4 C11 5 11 5 8.3984375 4.22265625 C6.90183594 3.64837891 6.90183594 3.64837891 5.375 3.0625 C4.37210937 2.68222656 3.36921875 2.30195313 2.3359375 1.91015625 C1.56507813 1.60980469 0.79421875 1.30945313 0 1 C0 0.67 0 0.34 0 0 Z " fill="#949494" transform="translate(437,452)"/>
<path d="M0 0 C3.28465896 2.79196011 5.01321958 6.23196817 7 10 C7 10.66 7 11.32 7 12 C6.34 12 5.68 12 5 12 C3.7109375 10.390625 3.7109375 10.390625 2.375 8.25 C1.92898438 7.55390625 1.48296875 6.8578125 1.0234375 6.140625 C0 4 0 4 0 0 Z " fill="#969696" transform="translate(408,95)"/>
<path d="M0 0 C2.8125 0.5625 2.8125 0.5625 6 2 C7.44088563 4.28536073 8.13569208 6.40707624 9 9 C4.44984107 7.48328036 2.49942736 3.83108947 0 0 Z " fill="#737373" transform="translate(477,471)"/>
<path d="M0 0 C2.94995547 3.45856848 5.22675738 6.80021485 7 11 C6.67 11.66 6.34 12.32 6 13 C2.50586395 10.13301658 0.71163126 8.15849852 0.1875 3.6875 C0.125625 2.470625 0.06375 1.25375 0 0 Z " fill="#969696" transform="translate(415,107)"/>
<path d="M0 0 C3.65392651 1.2179755 3.95831699 2.14396506 5.75 5.4375 C6.19859375 6.24058594 6.6471875 7.04367188 7.109375 7.87109375 C7.40328125 8.57363281 7.6971875 9.27617188 8 10 C7.67 10.66 7.34 11.32 7 12 C3.66488612 9.0098979 1.78478881 6.10501426 0 2 C0 1.34 0 0.68 0 0 Z " fill="#999999" transform="translate(376,39)"/>
<path d="M0 0 C0.33 0.66 0.66 1.32 1 2 C-0.37393005 5.66381347 -1.1447677 7.56243929 -4.6875 9.375 C-5.450625 9.58125 -6.21375 9.7875 -7 10 C-5.33248852 6.05860922 -2.77289351 3.2107188 0 0 Z " fill="#949494" transform="translate(119,615)"/>
<path d="M0 0 C4.88764045 5.86516854 4.88764045 5.86516854 6 9 C5.71050922 10.34353414 5.38155437 11.67965718 5 13 C4.15615325 11.58957044 3.32530504 10.17135868 2.5 8.75 C2.0359375 7.96109375 1.571875 7.1721875 1.09375 6.359375 C0 4 0 4 0 0 Z " fill="#878787" transform="translate(506,271)"/>
<path d="M0 0 C4.84659077 0.59104765 8.60748167 1.97944157 13 4 C9.75784173 5.08557659 7.97678191 4.94015194 4.8125 3.6875 C3.77029297 3.29111328 3.77029297 3.29111328 2.70703125 2.88671875 C1 2 1 2 0 0 Z " fill="#9E9E9E" transform="translate(261,668)"/>
<path d="M0 0 C3.28788824 3.11016455 5.83735988 6.01618925 8 10 C6.0625 9.6875 6.0625 9.6875 4 9 C3.67 8.01 3.34 7.02 3 6 C2.01 5.34 1.02 4.68 0 4 C0 2.68 0 1.36 0 0 Z " fill="#8C8C8C" transform="translate(701,602)"/>
<path d="M0 0 C1.32 0.33 2.64 0.66 4 1 C0.04 4.465 0.04 4.465 -4 8 C-4.66 7.67 -5.32 7.34 -6 7 C-4.02 4.69 -2.04 2.38 0 0 Z " fill="#2D2D2D" transform="translate(258,408)"/>
<path d="M0 0 C-2.33539809 1.55693206 -4.57968756 2.90200646 -7.0625 4.1875 C-7.75472656 4.55230469 -8.44695312 4.91710937 -9.16015625 5.29296875 C-9.76730469 5.52628906 -10.37445313 5.75960938 -11 6 C-11.66 5.67 -12.32 5.34 -13 5 C-8.55011262 1.27171598 -5.82569178 -0.15745113 0 0 Z " fill="#A5A5A5" transform="translate(343,454)"/>
<path d="M0 0 C0.33 0 0.66 0 1 0 C1.45732667 5.71658336 0.52273754 8.48649253 -3 13 C-4 11 -4 11 -3.22265625 8.3984375 C-2.83980469 7.40070313 -2.45695312 6.40296875 -2.0625 5.375 C-1.68222656 4.37210937 -1.30195313 3.36921875 -0.91015625 2.3359375 C-0.60980469 1.56507813 -0.30945313 0.79421875 0 0 Z " fill="#292929" transform="translate(270,388)"/>
<path d="M0 0 C0.33 0 0.66 0 1 0 C1.25002209 1.74714233 1.47423194 3.49799141 1.6875 5.25 C1.87892578 6.71179688 1.87892578 6.71179688 2.07421875 8.203125 C1.9871902 11.48272731 1.19219402 12.63310671 -1 15 C-1.09038099 9.84828377 -0.84681133 5.08086796 0 0 Z " fill="#636363" transform="translate(286,285)"/>
<path d="M0 0 C1.98 0.66 3.96 1.32 6 2 C6 2.99 6 3.98 6 5 C4.02 5 2.04 5 0 5 C0 3.35 0 1.7 0 0 Z " fill="#262626" transform="translate(277,675)"/>
<path d="M0 0 C0.66 0 1.32 0 2 0 C1.67 4.29 1.34 8.58 1 13 C0.67 13 0.34 13 0 13 C-0.19466332 11.20909747 -0.38051213 9.41723495 -0.5625 7.625 C-0.66691406 6.62726562 -0.77132813 5.62953125 -0.87890625 4.6015625 C-1 2 -1 2 0 0 Z " fill="#4D4D4D" transform="translate(293,523)"/>
<path d="M0 0 C3 2 3 2 3.73046875 4.1640625 C3.88128906 4.97617187 4.03210938 5.78828125 4.1875 6.625 C4.34605469 7.44226563 4.50460937 8.25953125 4.66796875 9.1015625 C4.83232422 10.04128906 4.83232422 10.04128906 5 11 C1.71779105 9.35889552 1.25429211 6.30677012 0 3 C0 2.01 0 1.02 0 0 Z " fill="#303030" transform="translate(509,507)"/>
<path d="M0 0 C0.99 0.33 1.98 0.66 3 1 C0.69 3.64 -1.62 6.28 -4 9 C-4.33 8.34 -4.66 7.68 -5 7 C-4.0625 4.875 -4.0625 4.875 -3 3 C-2.34 3 -1.68 3 -1 3 C-0.67 2.01 -0.34 1.02 0 0 Z " fill="#949494" transform="translate(318,466)"/>
<path d="M0 0 C3.57104439 1.87949705 5.54744301 3.17053157 7 7 C5.35 6.67 3.7 6.34 2 6 C1.34 4.02 0.68 2.04 0 0 Z " fill="#6A6A6A" transform="translate(219,643)"/>
<path d="M0 0 C0.66 0.33 1.32 0.66 2 1 C1.34 3.31 0.68 5.62 0 8 C-0.66 8 -1.32 8 -2 8 C-2 8.66 -2 9.32 -2 10 C-2.66 9.67 -3.32 9.34 -4 9 C-2.68 6.03 -1.36 3.06 0 0 Z " fill="#5D5D5D" transform="translate(495,624)"/>
<path d="M0 0 C1.79068573 2.6860286 2.66055791 4.6626589 3.625 7.6875 C3.88539063 8.49574219 4.14578125 9.30398438 4.4140625 10.13671875 C4.60742188 10.75160156 4.80078125 11.36648438 5 12 C3.0625 11.0625 3.0625 11.0625 1 9 C0.33825175 6.0141919 0.12794052 3.05138131 0 0 Z " fill="#999999" transform="translate(166,566)"/>
<path d="M0 0 C1.65 1.32 3.3 2.64 5 4 C4.67 5.32 4.34 6.64 4 8 C2 6.25 2 6.25 0 4 C0 2.68 0 1.36 0 0 Z " fill="#7A7A7A" transform="translate(624,492)"/>
<path d="M0 0 C1.24546405 2.49092811 0.7767578 3.41080733 0 6 C-1.65 6 -3.3 6 -5 6 C-2.25 1.125 -2.25 1.125 0 0 Z " fill="#6D6D6D" transform="translate(263,402)"/>
<path d="M0 0 C0.66 1.32 1.32 2.64 2 4 C2.66 4 3.32 4 4 4 C4.33 5.65 4.66 7.3 5 9 C2.5 7.875 2.5 7.875 0 6 C-0.3125 2.8125 -0.3125 2.8125 0 0 Z " fill="#5F5F5F" transform="translate(365,281)"/>
<path d="M0 0 C1.74271938 2.297221 3.39911152 4.59866729 5 7 C4.625 9.1875 4.625 9.1875 4 11 C0 4.5 0 4.5 0 0 Z " fill="#959595" transform="translate(460,188)"/>
<path d="M0 0 C2.5625 2.25 2.5625 2.25 5 5 C4.8125 7.3125 4.8125 7.3125 4 9 C0 4.5 0 4.5 0 0 Z " fill="#696969" transform="translate(442,158)"/>
<path d="M0 0 C2.31 0.66 4.62 1.32 7 2 C6.67 3.32 6.34 4.64 6 6 C5.34 5.67 4.68 5.34 4 5 C4 4.34 4 3.68 4 3 C2.68 2.34 1.36 1.68 0 1 C0 0.67 0 0.34 0 0 Z " fill="#5C5C5C" transform="translate(756,655)"/>
<path d="M0 0 C0.66 0 1.32 0 2 0 C1.34 3.63 0.68 7.26 0 11 C-0.33 11 -0.66 11 -1 11 C-1.02688151 9.35425434 -1.04634123 7.70838587 -1.0625 6.0625 C-1.07410156 5.14597656 -1.08570313 4.22945313 -1.09765625 3.28515625 C-1 1 -1 1 0 0 Z " fill="#303030" transform="translate(296,507)"/>
<path d="M0 0 C2.475 0.99 2.475 0.99 5 2 C5.33 1.34 5.66 0.68 6 0 C6.33 1.65 6.66 3.3 7 5 C4.11424181 4.60196439 3.17810487 4.20990931 1.25 1.9375 C0.8375 1.298125 0.425 0.65875 0 0 Z " fill="#A8A8A8" transform="translate(565,385)"/>
<path d="M0 0 C2.27521866 2.16687491 4.15794162 4.45620509 6 7 C5.67 7.66 5.34 8.32 5 9 C2.5 6.75 2.5 6.75 0 4 C0 2.68 0 1.36 0 0 Z " fill="#9A9A9A" transform="translate(187,608)"/>
<path d="M0 0 C2.27521866 2.16687491 4.15794162 4.45620509 6 7 C5.67 7.66 5.34 8.32 5 9 C2.5 6.75 2.5 6.75 0 4 C0 2.68 0 1.36 0 0 Z " fill="#949494" transform="translate(651,529)"/>
<path d="M0 0 C0.66 0 1.32 0 2 0 C2.84098656 4.01804691 3.05404945 7.01803543 2 11 C1.67 11 1.34 11 1 11 C0.67 7.37 0.34 3.74 0 0 Z " fill="#2F2F2F" transform="translate(277,512)"/>
<path d="M0 0 C2.5 2.3125 2.5 2.3125 5 5 C5 5.99 5 6.98 5 8 C2.5 6.25 2.5 6.25 0 4 C0 2.68 0 1.36 0 0 Z " fill="#939393" transform="translate(629,498)"/>
<path d="M0 0 C1.5 1.125 1.5 1.125 3 3 C3.1875 6.1875 3.1875 6.1875 3 9 C2.67 8.01 2.34 7.02 2 6 C1.34 6 0.68 6 0 6 C0 4.02 0 2.04 0 0 Z " fill="#6B6B6B" transform="translate(662,546)"/>
<path d="M0 0 C3.0916909 2.52956528 3.90931332 5.22454612 5 9 C2.5 6.75 2.5 6.75 0 4 C0 2.68 0 1.36 0 0 Z " fill="#9F9F9F" transform="translate(565,376)"/>
<path d="M0 0 C3.67420866 0.30618405 4.78135513 0.75771784 7.3125 3.5625 C8.1478125 4.7690625 8.1478125 4.7690625 9 6 C5.06326356 4.68775452 2.77280706 3.08089673 0 0 Z " fill="#9D9D9D" transform="translate(401,325)"/>
</svg>
